<svg width="133" height="44" viewBox="0 0 133 44" fill="none" xmlns="http://www.w3.org/2000/svg">
<g clip-path="url(#clip0_1090_17554)">
<path d="M122.423 -0.000101141H10.7676C10.3606 -0.000101141 9.95846 -0.000101141 9.55254 0.00209886C9.21274 0.00429886 8.87565 0.0106899 8.5326 0.0160689C7.78731 0.0247608 7.04379 0.0897427 6.30847 0.21045C5.57419 0.333785 4.86291 0.566306 4.19869 0.90015C3.53528 1.23682 2.92911 1.67428 2.40216 2.19668C1.87244 2.7176 1.43088 3.31972 1.09445 3.97987C0.7571 4.63872 0.523178 5.34473 0.400767 6.07353C0.277192 6.8014 0.210695 7.53767 0.201874 8.27573C0.191574 8.61299 0.190486 8.95137 0.185059 9.28867V34.7144C0.190486 35.0559 0.191574 35.3868 0.201874 35.7284C0.210698 36.4665 0.277195 37.2027 0.400767 37.9305C0.52284 38.6598 0.756776 39.3662 1.09445 40.0253C1.43072 40.6833 1.87235 41.283 2.40216 41.801C2.92711 42.3257 3.53368 42.7635 4.19869 43.0976C4.86291 43.4323 5.57411 43.6662 6.30847 43.7914C7.04391 43.9112 7.78736 43.9762 8.5326 43.9859C8.87565 43.9934 9.21274 43.9977 9.55254 43.9977C9.95845 43.9999 10.3606 43.9999 10.7676 43.9999H122.423C122.822 43.9999 123.228 43.9999 123.626 43.9977C123.965 43.9977 124.311 43.9934 124.65 43.9859C125.394 43.9767 126.136 43.9117 126.869 43.7914C127.606 43.6653 128.32 43.4315 128.987 43.0976C129.652 42.7633 130.258 42.3255 130.782 41.801C131.311 41.2809 131.753 40.6817 132.094 40.0253C132.429 39.3657 132.661 38.6593 132.781 37.9305C132.905 37.2026 132.974 36.4665 132.987 35.7284C132.991 35.3868 132.991 35.0559 132.991 34.7144C133 34.3147 133 33.9173 133 33.5112V10.4896C133 10.0868 133 9.6872 132.991 9.28867C132.991 8.95137 132.991 8.61299 132.987 8.27568C132.974 7.53756 132.905 6.80146 132.781 6.07348C132.66 5.34511 132.429 4.63915 132.094 3.97983C131.409 2.65661 130.322 1.57953 128.987 0.900051C128.32 0.567023 127.606 0.334563 126.869 0.210351C126.136 0.0891119 125.394 0.0241074 124.65 0.0159149C124.311 0.0105469 123.965 0.00410086 123.626 0.00195586C123.228 -0.000244141 122.822 -0.000244141 122.423 -0.000244141V-0.000101141Z" fill="white"/>
<path d="M132.987 8.27568C132.974 7.53756 132.905 6.80146 132.781 6.07348C132.66 5.34511 132.429 4.63915 132.094 3.97983M132.987 8.27568L132.487 8.28211C132.487 8.28298 132.487 8.28386 132.487 8.28474M132.987 8.27568L132.487 8.28474M132.987 8.27568C132.991 8.61299 132.991 8.95137 132.991 9.28867C133 9.6872 133 10.0868 133 10.4896V33.5112C133 33.9173 133 34.3147 132.991 34.7144C132.991 35.0559 132.991 35.3868 132.987 35.7284M132.487 8.28474C132.474 7.57168 132.408 6.86057 132.288 6.15729L132.288 6.15517C132.175 5.47772 131.96 4.82099 131.649 4.20749M132.487 8.28474C132.491 8.61742 132.491 8.95171 132.491 9.28867L132.491 9.29952C132.5 9.69172 132.5 10.0859 132.5 10.4896V33.5112C132.5 33.9182 132.5 34.3102 132.491 34.7035L132.491 34.7035V34.7144C132.491 35.0555 132.491 35.3824 132.487 35.7194M131.649 4.20749C131.649 4.20823 131.649 4.20898 131.65 4.20973L132.094 3.97983M131.649 4.20749C131.648 4.20707 131.648 4.20665 131.648 4.20623L132.094 3.97983M131.649 4.20749C131.012 2.97915 130.003 1.97839 128.762 1.34641M132.094 3.97983C131.409 2.65661 130.322 1.57953 128.987 0.900051M128.987 0.900051L128.764 1.34745C128.763 1.3471 128.763 1.34676 128.762 1.34641M128.987 0.900051C128.32 0.567023 127.606 0.334563 126.869 0.210351M128.987 0.900051L128.761 1.34564C128.761 1.3459 128.762 1.34615 128.762 1.34641M128.762 1.34641C128.14 1.03612 127.474 0.819409 126.787 0.703499M126.869 0.210351L126.788 0.703663C126.788 0.703608 126.787 0.703553 126.787 0.703499M126.869 0.210351C126.136 0.0891119 125.394 0.0241074 124.65 0.0159149M126.869 0.210351L126.786 0.703391C126.787 0.703427 126.787 0.703463 126.787 0.703499M126.787 0.703499C126.079 0.586518 125.362 0.523793 124.644 0.515885L124.642 0.515858C124.579 0.514856 124.516 0.513827 124.453 0.512798L124.65 0.0159149M124.65 0.0159149C124.588 0.0149285 124.525 0.0139057 124.462 0.01288C124.184 0.0083232 123.903 0.00370672 123.626 0.00195586L123.624 0.501948L124.65 0.0159149ZM132.487 35.7194L132.987 35.7284M132.487 35.7194C132.474 36.4324 132.408 37.1435 132.288 37.8467L132.288 37.8491C132.176 38.5269 131.96 39.1839 131.649 39.7976M132.487 35.7194C132.487 35.7203 132.487 35.7212 132.487 35.7221L132.987 35.7284M132.987 35.7284C132.974 36.4665 132.905 37.2026 132.781 37.9305C132.661 38.6593 132.429 39.3657 132.094 40.0253M131.649 39.7976C131.649 39.7967 131.649 39.7959 131.65 39.7951L132.094 40.0253M131.649 39.7976C131.333 40.4062 130.922 40.962 130.432 41.4446L130.429 41.4474C129.942 41.9339 129.38 42.3401 128.764 42.6504M131.649 39.7976C131.648 39.798 131.648 39.7984 131.648 39.7988L132.094 40.0253M132.094 40.0253C131.753 40.6817 131.311 41.2809 130.782 41.801C130.258 42.3255 129.652 42.7633 128.987 43.0976M128.764 42.6504L128.987 43.0976M128.764 42.6504C128.141 42.9621 127.474 43.1805 126.787 43.2984M128.764 42.6504C128.763 42.6506 128.763 42.6507 128.763 42.6509L128.987 43.0976M128.987 43.0976C128.32 43.4315 127.606 43.6653 126.869 43.7914M126.787 43.2984C126.787 43.2982 126.788 43.2981 126.789 43.298L126.869 43.7914M126.787 43.2984C126.078 43.4144 125.362 43.4771 124.643 43.4859L124.639 43.486C124.304 43.4935 123.961 43.4977 123.626 43.4977L123.624 43.4977C123.227 43.4999 122.824 43.4999 122.425 43.4999H122.423H10.7676H10.7655C10.359 43.4999 9.95888 43.4999 9.55525 43.4977H9.55254C9.21697 43.4977 8.88357 43.4935 8.54349 43.486L8.53913 43.486C7.81924 43.4766 7.10108 43.4138 6.39067 43.2982M126.787 43.2984C126.786 43.2984 126.786 43.2985 126.785 43.2986L126.869 43.7914M126.869 43.7914C126.136 43.9117 125.394 43.9767 124.65 43.9859C124.311 43.9934 123.965 43.9977 123.626 43.9977C123.228 43.9999 122.822 43.9999 122.423 43.9999H10.7676H10.7655C10.3592 43.9999 9.95775 43.9999 9.55254 43.9977C9.21274 43.9977 8.87565 43.9934 8.5326 43.9859C7.78736 43.9762 7.04391 43.9112 6.30847 43.7914M6.39067 43.2982C6.39129 43.2984 6.39191 43.2985 6.39253 43.2986L6.30847 43.7914M6.39067 43.2982C5.70592 43.1813 5.04288 42.9631 4.42371 42.6511L4.42315 42.6508C3.80571 42.3406 3.24272 41.9342 2.75563 41.4474L2.75565 41.4473L2.75171 41.4435C2.26052 40.9632 1.85124 40.4074 1.53968 39.7977L1.53945 39.7973C1.22516 39.1838 1.00748 38.5265 0.893906 37.848L0.893713 37.8468C0.7745 37.1447 0.710351 36.4344 0.701838 35.7225H0.70192L0.701647 35.7134C0.694747 35.4845 0.692105 35.2637 0.689381 35.036C0.688106 34.9295 0.686814 34.8215 0.685059 34.7104M6.39067 43.2982C6.39005 43.2981 6.38944 43.298 6.38882 43.2979L6.30847 43.7914M6.30847 43.7914C5.57411 43.6662 4.86291 43.4323 4.19869 43.0976C3.53368 42.7635 2.92711 42.3257 2.40216 41.801C1.87235 41.283 1.43072 40.6833 1.09445 40.0253C0.756776 39.3662 0.52284 38.6598 0.400767 37.9305C0.277195 37.2027 0.210698 36.4665 0.201874 35.7284C0.194837 35.495 0.1921 35.2666 0.189341 35.0364C0.188062 34.9297 0.186778 34.8226 0.185059 34.7144M0.685059 34.7104V34.7144H0.185059M0.685059 34.7104V9.29268M0.685059 34.7104C0.685038 34.7091 0.685017 34.7077 0.684995 34.7064L0.185059 34.7144M0.185059 34.7144V9.28867M0.685059 9.29268C0.685037 9.29403 0.685016 9.29537 0.684994 9.29672L0.185059 9.28867M0.685059 9.29268C0.686838 9.18142 0.688142 9.07217 0.689431 8.96409C0.692138 8.73725 0.694783 8.51553 0.701641 8.29099L0.701727 8.29099L0.701838 8.2817C0.710348 7.5697 0.774498 6.85942 0.893714 6.15722L0.89386 6.15635C1.00777 5.47816 1.22546 4.82107 1.5395 4.20776L1.53994 4.2069C1.85184 3.59486 2.26132 3.03644 2.75274 2.55318L2.75274 2.55318L2.75417 2.55176C3.24387 2.0663 3.8073 1.65958 4.42413 1.34644M0.685059 9.29268V9.28867H0.185059M0.185059 9.28867C0.186798 9.18055 0.188092 9.07231 0.189387 8.96404C0.19213 8.73454 0.194875 8.50488 0.201874 8.27573C0.210695 7.53767 0.277192 6.8014 0.400767 6.07353C0.523178 5.34473 0.7571 4.63872 1.09445 3.97987C1.43088 3.31972 1.87244 2.7176 2.40216 2.19668C2.92911 1.67428 3.53528 1.23682 4.19869 0.90015M4.42413 1.34644C4.42383 1.3466 4.42353 1.34675 4.42323 1.3469L4.19869 0.90015M4.42413 1.34644C5.04309 1.03546 5.70598 0.818745 6.3904 0.703693M4.42413 1.34644C4.42441 1.3463 4.42468 1.34616 4.42496 1.34602L4.19869 0.90015M4.19869 0.90015L6.3904 0.703693M6.3904 0.703693C7.10055 0.587165 7.81864 0.52443 8.53843 0.516039L8.54043 0.516007C8.61243 0.514879 8.68391 0.51371 8.755 0.512548L6.3904 0.703693ZM122.423 0.499899H122.906H10.7676H122.423Z" stroke="black" stroke-opacity="0.2"/>
<path d="M27.9288 21.8783C27.9412 20.9235 28.1971 19.9874 28.6727 19.157C29.1482 18.3266 29.828 17.6289 30.6487 17.1288C30.1273 16.3908 29.4395 15.7835 28.6399 15.355C27.8402 14.9266 26.9508 14.6888 26.0422 14.6607C24.1041 14.459 22.2251 15.8101 21.2375 15.8101C20.2307 15.8101 18.7101 14.6807 17.0726 14.7141C16.0134 14.748 14.9812 15.0532 14.0765 15.6001C13.1717 16.1469 12.4254 16.9167 11.9101 17.8344C9.67793 21.6646 11.3429 27.2938 13.4811 30.3898C14.5509 31.9059 15.8012 33.5993 17.4372 33.5393C19.0381 33.4735 19.6361 32.5275 21.5685 32.5275C23.483 32.5275 24.0439 33.5393 25.7131 33.5011C27.431 33.4735 28.5133 31.9783 29.5456 30.4479C30.3143 29.3677 30.9057 28.1738 31.2981 26.9104C30.3001 26.4921 29.4484 25.7918 28.8493 24.897C28.2501 24.0021 27.93 22.9522 27.9288 21.8783Z" fill="black"/>
<path d="M24.7761 12.6245C25.7128 11.5101 26.1743 10.0777 26.0625 8.63159C24.6315 8.78055 23.3097 9.45837 22.3604 10.53C21.8963 11.0535 21.5408 11.6626 21.3143 12.3223C21.0878 12.9821 20.9947 13.6796 21.0403 14.375C21.7561 14.3823 22.4642 14.2286 23.1113 13.9254C23.7584 13.6221 24.3276 13.1773 24.7761 12.6245Z" fill="black"/>
<path d="M47.1357 29.8537H41.8821L40.6205 33.5458H38.3953L43.3714 19.886H45.6833L50.6594 33.5458H48.3963L47.1357 29.8537ZM42.4262 28.15H46.5906L44.5377 22.158H44.4802L42.4262 28.15Z" fill="black"/>
<path d="M61.406 28.5666C61.406 31.6614 59.7347 33.6498 57.2125 33.6498C56.5736 33.6829 55.9381 33.5371 55.379 33.2289C54.8198 32.9208 54.3595 32.4628 54.0508 31.9074H54.0031V36.8402H51.9404V23.5865H53.9369V25.243H53.9749C54.2978 24.6902 54.7659 24.2346 55.3293 23.9246C55.8927 23.6146 56.5304 23.4617 57.1745 23.4823C59.7249 23.4823 61.406 25.4804 61.406 28.5666ZM59.2859 28.5666C59.2859 26.5503 58.2346 25.2247 56.6304 25.2247C55.0545 25.2247 53.9944 26.5782 53.9944 28.5666C53.9944 30.5732 55.0545 31.9171 56.6304 31.9171C58.2346 31.9171 59.2859 30.6012 59.2859 28.5666H59.2859Z" fill="black"/>
<path d="M72.4666 28.5666C72.4666 31.6614 70.7947 33.6498 68.2725 33.6498C67.6336 33.6829 66.9982 33.5371 66.439 33.2289C65.8799 32.9208 65.4196 32.4628 65.1108 31.9074H65.0631V36.8402H63.0005V23.5865H64.997V25.243H65.0349C65.3579 24.6902 65.8259 24.2346 66.3894 23.9246C66.9528 23.6146 67.5905 23.4617 68.2346 23.4823C70.785 23.4823 72.4666 25.4804 72.4666 28.5666ZM70.346 28.5666C70.346 26.5503 69.2946 25.2247 67.6905 25.2247C66.1145 25.2247 65.0545 26.5782 65.0545 28.5666C65.0545 30.5732 66.1145 31.9171 67.6905 31.9171C69.2946 31.9171 70.346 30.6012 70.346 28.5666Z" fill="black"/>
<path d="M79.7753 29.7398C79.9281 31.0944 81.2559 31.9838 83.0703 31.9838C84.8088 31.9838 86.0596 31.0944 86.0596 29.873C86.0596 28.8127 85.3053 28.1779 83.519 27.7428L81.7328 27.3163C79.2019 26.7105 78.027 25.5374 78.027 23.6339C78.027 21.2771 80.0994 19.6582 83.041 19.6582C85.9545 19.6582 87.951 21.2771 88.0182 23.6339H85.9361C85.8114 22.2707 84.6744 21.4479 83.0128 21.4479C81.3512 21.4479 80.2142 22.2804 80.2142 23.4921C80.2142 24.4578 80.9404 25.0261 82.7169 25.4611L84.2354 25.8306C87.0633 26.4934 88.2371 27.6192 88.2371 29.6173C88.2371 32.1728 86.1843 33.7734 82.9174 33.7734C79.8608 33.7734 77.7971 32.2104 77.6638 29.7397L79.7753 29.7398Z" fill="black"/>
<path d="M92.6907 21.2297V23.5866H94.6016V25.2054H92.6907V30.6958C92.6907 31.5487 93.0733 31.9461 93.9133 31.9461C94.1402 31.9422 94.3666 31.9264 94.5918 31.8988V33.508C94.2141 33.578 93.8303 33.6096 93.4461 33.6026C91.4117 33.6026 90.6183 32.8452 90.6183 30.9138V25.2054H89.1572V23.5866H90.6183V21.2297H92.6907Z" fill="black"/>
<path d="M95.7073 28.5666C95.7073 25.4332 97.5694 23.4641 100.473 23.4641C103.387 23.4641 105.24 25.4331 105.24 28.5666C105.24 31.7087 103.396 33.6692 100.473 33.6692C97.5509 33.6692 95.7073 31.7087 95.7073 28.5666ZM103.138 28.5666C103.138 26.4171 102.144 25.1485 100.473 25.1485C98.8018 25.1485 97.8078 26.4268 97.8078 28.5666C97.8078 30.7247 98.8018 31.9837 100.473 31.9837C102.144 31.9837 103.138 30.7247 103.138 28.5666H103.138Z" fill="black"/>
<path d="M106.941 23.5867H108.908V25.2818H108.956C109.089 24.7523 109.402 24.2845 109.842 23.9568C110.282 23.6291 110.823 23.4616 111.373 23.4824C111.61 23.4816 111.847 23.5072 112.079 23.5587V25.4708C111.779 25.3799 111.466 25.3382 111.153 25.3473C110.853 25.3352 110.554 25.3876 110.277 25.5008C110 25.614 109.75 25.7853 109.546 26.0029C109.342 26.2206 109.188 26.4795 109.094 26.7619C109 27.0442 108.969 27.3433 109.003 27.6386V33.5457H106.941L106.941 23.5867Z" fill="black"/>
<path d="M121.589 30.6206C121.312 32.4285 119.535 33.6692 117.262 33.6692C114.339 33.6692 112.525 31.7281 112.525 28.6139C112.525 25.4901 114.349 23.4641 117.176 23.4641C119.956 23.4641 121.704 25.3569 121.704 28.3765V29.0769H114.607V29.2004C114.574 29.567 114.62 29.9362 114.743 30.2836C114.865 30.631 115.06 30.9487 115.316 31.2155C115.572 31.4823 115.882 31.6921 116.226 31.8311C116.569 31.97 116.939 32.0349 117.31 32.0213C117.797 32.0666 118.287 31.9547 118.705 31.7023C119.123 31.4499 119.448 31.0705 119.631 30.6206L121.589 30.6206ZM114.617 27.6482H119.64C119.659 27.3186 119.608 26.9888 119.492 26.6795C119.376 26.3702 119.197 26.088 118.965 25.8507C118.734 25.6133 118.455 25.4259 118.147 25.3003C117.839 25.1747 117.509 25.1135 117.176 25.1206C116.84 25.1186 116.507 25.1825 116.196 25.3087C115.885 25.435 115.603 25.6209 115.365 25.8559C115.127 26.0909 114.938 26.3703 114.81 26.6779C114.681 26.9855 114.616 27.3153 114.617 27.6482V27.6482Z" fill="black"/>
<path d="M42.1683 9.60388C42.6007 9.57313 43.0346 9.63787 43.4387 9.79345C43.8429 9.94903 44.2071 10.1916 44.5052 10.5035C44.8033 10.8155 45.0278 11.1892 45.1626 11.5976C45.2973 12.006 45.3389 12.4389 45.2844 12.8652C45.2844 14.9621 44.1409 16.1674 42.1683 16.1674H39.7761V9.60388H42.1683ZM40.8047 15.2392H42.0534C42.3624 15.2575 42.6716 15.2073 42.9585 15.0922C43.2455 14.9771 43.5029 14.8001 43.7121 14.574C43.9214 14.3478 44.0771 14.0783 44.1679 13.785C44.2588 13.4918 44.2825 13.1821 44.2374 12.8786C44.2792 12.5763 44.2531 12.2685 44.1608 11.9774C44.0686 11.6863 43.9125 11.419 43.7038 11.1946C43.495 10.9703 43.2388 10.7945 42.9535 10.6799C42.6682 10.5652 42.3608 10.5145 42.0534 10.5314H40.8047V15.2392Z" fill="black"/>
<path d="M46.4462 13.6884C46.4148 13.3629 46.4524 13.0345 46.5565 12.7242C46.6607 12.4139 46.8291 12.1287 47.051 11.8867C47.2729 11.6447 47.5434 11.4514 47.8452 11.3191C48.1469 11.1868 48.4732 11.1184 48.8031 11.1184C49.1331 11.1184 49.4593 11.1868 49.7611 11.3191C50.0628 11.4514 50.3333 11.6447 50.5552 11.8867C50.7771 12.1287 50.9456 12.4139 51.0497 12.7242C51.1539 13.0345 51.1914 13.3629 51.16 13.6884C51.192 14.0143 51.1549 14.3431 51.051 14.6539C50.9472 14.9647 50.7788 15.2505 50.5568 15.493C50.3349 15.7354 50.0642 15.9292 49.7622 16.0618C49.4601 16.1943 49.1334 16.2628 48.8031 16.2628C48.4728 16.2628 48.1461 16.1943 47.8441 16.0618C47.542 15.9292 47.2713 15.7354 47.0494 15.493C46.8274 15.2505 46.6591 14.9647 46.5552 14.6539C46.4513 14.3431 46.4142 14.0143 46.4462 13.6884ZM50.1455 13.6884C50.1455 12.6147 49.6588 11.9869 48.8047 11.9869C47.9474 11.9869 47.4651 12.6147 47.4651 13.6884C47.4651 14.7707 47.9474 15.3938 48.8047 15.3938C49.6588 15.3937 50.1455 14.7664 50.1455 13.6884H50.1455Z" fill="black"/>
<path d="M57.4261 16.1673H56.4029L55.37 12.5193H55.292L54.2634 16.1673H53.2499L51.8723 11.2141H52.8727L53.768 14.9937H53.8417L54.8693 11.2141H55.8155L56.843 14.9937H56.921L57.812 11.2141H58.7983L57.4261 16.1673Z" fill="black"/>
<path d="M59.957 11.2143H60.9065V12.0011H60.9802C61.1053 11.7185 61.3161 11.4816 61.5835 11.3234C61.8508 11.1652 62.1613 11.0936 62.4716 11.1186C62.7148 11.1005 62.959 11.1369 63.1861 11.225C63.4132 11.3131 63.6173 11.4507 63.7835 11.6276C63.9496 11.8045 64.0734 12.0163 64.1458 12.2471C64.2182 12.4779 64.2372 12.7218 64.2015 12.9609V16.1674H63.2152V13.2064C63.2152 12.4104 62.8662 12.0146 62.1367 12.0146C61.9716 12.0069 61.8068 12.0348 61.6536 12.0962C61.5003 12.1576 61.3623 12.2511 61.249 12.3704C61.1356 12.4896 61.0496 12.6317 60.9969 12.7869C60.9441 12.9422 60.9259 13.1069 60.9434 13.2698V16.1675H59.957L59.957 11.2143Z" fill="black"/>
<path d="M65.7732 9.28052H66.7595V16.1673H65.7732V9.28052Z" fill="black"/>
<path d="M68.1305 13.6885C68.0991 13.363 68.1367 13.0345 68.2409 12.7243C68.3451 12.414 68.5135 12.1287 68.7355 11.8867C68.9574 11.6447 69.2279 11.4514 69.5297 11.3191C69.8314 11.1868 70.1577 11.1184 70.4877 11.1184C70.8176 11.1184 71.144 11.1868 71.4457 11.3191C71.7475 11.4514 72.018 11.6447 72.2399 11.8867C72.4619 12.1287 72.6303 12.414 72.7345 12.7243C72.8387 13.0345 72.8763 13.363 72.8449 13.6885C72.8768 14.0144 72.8397 14.3433 72.7358 14.654C72.6319 14.9648 72.4635 15.2506 72.2415 15.4931C72.0195 15.7355 71.7488 15.9292 71.4468 16.0618C71.1447 16.1944 70.818 16.2629 70.4877 16.2629C70.1573 16.2629 69.8307 16.1944 69.5286 16.0618C69.2266 15.9292 68.9559 15.7355 68.7339 15.4931C68.5119 15.2506 68.3435 14.9648 68.2396 14.654C68.1357 14.3433 68.0985 14.0144 68.1305 13.6885ZM71.8298 13.6885C71.8298 12.6148 71.3431 11.987 70.489 11.987C69.6317 11.987 69.1494 12.6148 69.1494 13.6885C69.1494 14.7708 69.6317 15.3938 70.489 15.3938C71.3431 15.3938 71.8298 14.7665 71.8298 13.6885H71.8298Z" fill="black"/>
<path d="M73.8833 14.7667C73.8833 13.8751 74.5531 13.3611 75.7422 13.288L77.0959 13.2107V12.7832C77.0959 12.26 76.7469 11.9646 76.0727 11.9646C75.5221 11.9646 75.1406 12.1649 75.0311 12.5151H74.0762C74.177 11.6644 74.9845 11.1187 76.1183 11.1187C77.3712 11.1187 78.0779 11.7369 78.0779 12.7832V16.1675H77.1284V15.4714H77.0504C76.892 15.7211 76.6696 15.9246 76.4058 16.0613C76.1421 16.1979 75.8465 16.2627 75.5492 16.2491C75.3394 16.2707 75.1274 16.2485 74.9267 16.184C74.7261 16.1194 74.5414 16.0139 74.3844 15.8742C74.2275 15.7345 74.1018 15.5638 74.0155 15.3731C73.9291 15.1823 73.8841 14.9757 73.8833 14.7667ZM77.0959 14.3434V13.9293L75.8755 14.0067C75.1872 14.0523 74.875 14.2844 74.875 14.721C74.875 15.1668 75.2652 15.4263 75.8018 15.4263C75.959 15.442 76.1178 15.4263 76.2688 15.38C76.4197 15.3337 76.5597 15.2578 76.6805 15.1567C76.8012 15.0557 76.9002 14.9317 76.9716 14.7919C77.043 14.6522 77.0853 14.4997 77.0959 14.3434Z" fill="black"/>
<path d="M79.3743 13.6886C79.3743 12.1235 80.1861 11.1319 81.4488 11.1319C81.7612 11.1177 82.0712 11.1918 82.3425 11.3457C82.6139 11.4996 82.8355 11.7269 82.9814 12.0009H83.0551V9.28052H84.0415V16.1673H83.0963V15.3848H83.0183C82.8611 15.657 82.6318 15.8814 82.3552 16.0338C82.0785 16.1861 81.7651 16.2605 81.4488 16.249C80.1774 16.249 79.3743 15.2575 79.3743 13.6886ZM80.3932 13.6886C80.3932 14.7392 80.8928 15.3714 81.7285 15.3714C82.5598 15.3714 83.0736 14.7301 83.0736 13.6929C83.0736 12.6606 82.5544 12.0101 81.7285 12.0101C80.8982 12.0101 80.3931 12.6466 80.3931 13.6886H80.3932Z" fill="black"/>
<path d="M88.1222 13.6884C88.0908 13.3629 88.1284 13.0345 88.2325 12.7242C88.3367 12.4139 88.5051 12.1287 88.727 11.8867C88.949 11.6447 89.2194 11.4514 89.5212 11.3191C89.8229 11.1868 90.1492 11.1184 90.4791 11.1184C90.8091 11.1184 91.1354 11.1868 91.4371 11.3191C91.7388 11.4514 92.0093 11.6447 92.2312 11.8867C92.4531 12.1287 92.6216 12.4139 92.7257 12.7242C92.8299 13.0345 92.8675 13.3629 92.836 13.6884C92.8681 14.0143 92.8309 14.3431 92.727 14.6539C92.6232 14.9647 92.4548 15.2505 92.2329 15.493C92.0109 15.7354 91.7402 15.9292 91.4382 16.0618C91.1361 16.1943 90.8095 16.2628 90.4791 16.2628C90.1488 16.2628 89.8221 16.1943 89.5201 16.0618C89.2181 15.9292 88.9474 15.7354 88.7254 15.493C88.5034 15.2505 88.3351 14.9647 88.2312 14.6539C88.1273 14.3431 88.0902 14.0143 88.1222 13.6884ZM91.8215 13.6884C91.8215 12.6147 91.3348 11.9869 90.4808 11.9869C89.6234 11.9869 89.1411 12.6147 89.1411 13.6884C89.1411 14.7707 89.6234 15.3938 90.4808 15.3938C91.3349 15.3937 91.8215 14.7664 91.8215 13.6884Z" fill="black"/>
<path d="M94.1594 11.2143H95.1089V12.0011H95.1826C95.3077 11.7185 95.5185 11.4816 95.7859 11.3234C96.0532 11.1652 96.3637 11.0936 96.674 11.1186C96.9172 11.1005 97.1614 11.1369 97.3885 11.225C97.6156 11.3131 97.8197 11.4507 97.9859 11.6276C98.152 11.8045 98.2758 12.0163 98.3482 12.2471C98.4206 12.4779 98.4396 12.7218 98.4039 12.9609V16.1674H97.4176V13.2064C97.4176 12.4104 97.0686 12.0146 96.3391 12.0146C96.174 12.0069 96.0092 12.0348 95.856 12.0962C95.7027 12.1576 95.5647 12.2511 95.4514 12.3704C95.338 12.4896 95.252 12.6317 95.1993 12.7869C95.1465 12.9422 95.1283 13.1069 95.1458 13.2698V16.1675H94.1594V11.2143Z" fill="black"/>
<path d="M103.977 9.98096V11.2367H105.06V12.0601H103.977V14.6071C103.977 15.1259 104.193 15.3531 104.684 15.3531C104.81 15.3527 104.935 15.3452 105.06 15.3306V16.1448C104.883 16.1762 104.704 16.1929 104.524 16.1948C103.427 16.1948 102.99 15.8123 102.99 14.8574V12.0601H102.197V11.2367H102.99V9.98096H103.977Z" fill="black"/>
<path d="M106.407 9.28052H107.385V12.0101H107.463C107.594 11.7249 107.811 11.4866 108.083 11.3278C108.356 11.169 108.672 11.0975 108.987 11.1228C109.229 11.1098 109.471 11.1498 109.695 11.24C109.92 11.3303 110.121 11.4685 110.286 11.6449C110.45 11.8213 110.573 12.0314 110.646 12.2604C110.719 12.4893 110.74 12.7314 110.708 12.9694V16.1673H109.721V13.2105C109.721 12.4194 109.349 12.0187 108.652 12.0187C108.482 12.0049 108.312 12.028 108.152 12.0864C107.993 12.1447 107.848 12.2369 107.728 12.3566C107.608 12.4762 107.516 12.6203 107.458 12.7788C107.401 12.9374 107.379 13.1065 107.394 13.2745V16.1673H106.407L106.407 9.28052Z" fill="black"/>
<path d="M116.459 14.8299C116.325 15.2826 116.035 15.6742 115.639 15.9362C115.243 16.1981 114.767 16.3138 114.294 16.2629C113.965 16.2715 113.637 16.209 113.335 16.0797C113.032 15.9505 112.762 15.7575 112.542 15.5143C112.323 15.271 112.159 14.9833 112.063 14.6711C111.967 14.3589 111.94 14.0297 111.985 13.7063C111.941 13.3819 111.968 13.052 112.064 12.7388C112.16 12.4257 112.323 12.1367 112.542 11.8913C112.76 11.6459 113.029 11.4499 113.331 11.3166C113.632 11.1833 113.959 11.1157 114.29 11.1185C115.68 11.1185 116.519 12.0601 116.519 13.6155V13.9566H112.99V14.0114C112.974 14.1931 112.998 14.3761 113.058 14.5485C113.118 14.721 113.213 14.879 113.339 15.0126C113.464 15.1462 113.616 15.2524 113.785 15.3243C113.954 15.3963 114.137 15.4324 114.321 15.4304C114.557 15.4584 114.796 15.4163 115.008 15.3094C115.219 15.2025 115.394 15.0356 115.51 14.8299L116.459 14.8299ZM112.99 13.2336H115.514C115.527 13.0674 115.504 12.9004 115.447 12.7434C115.391 12.5864 115.302 12.4429 115.186 12.3221C115.07 12.2012 114.93 12.1057 114.775 12.0417C114.619 11.9777 114.452 11.9467 114.284 11.9505C114.113 11.9484 113.944 11.9801 113.786 12.0438C113.628 12.1076 113.485 12.202 113.364 12.3216C113.243 12.4412 113.148 12.5835 113.084 12.7401C113.02 12.8968 112.988 13.0646 112.99 13.2336H112.99Z" fill="black"/>
</g>
<defs>
<clipPath id="clip0_1090_17554">
<rect width="132.815" height="44" fill="white" transform="translate(0.185059)"/>
</clipPath>
</defs>
</svg>
