<svg width="496" height="277" viewBox="0 0 496 277" fill="none" xmlns="http://www.w3.org/2000/svg">
<path opacity="0.175" d="M193.036 261.921C172.311 188.357 298.326 117.344 349.316 102.038C350.508 101.554 351.768 101.267 353.047 101.189C429.733 79.9243 470.355 144.557 486.109 205.788C501.863 267.02 508.078 346.944 431.388 368.223C392.421 378.853 348.483 368.223 310.76 354.615C273.87 341.006 233.659 321.023 207.542 288.706C201.13 280.777 196.211 271.695 193.036 261.921V261.921Z" fill="#2AACEF"/>
<path opacity="0.175" d="M342.854 219.965C333.174 295.82 189.616 312.157 136.771 306.395C135.486 306.377 134.217 306.15 133.01 305.724C54.2203 295.442 42.1233 220.065 51.5556 157.509C60.9878 94.9539 86.4884 18.8916 165.288 29.1623C205.256 34.5489 241.49 61.4603 270.848 88.6953C299.441 115.606 328.597 149.684 339.981 189.634C342.779 199.438 343.753 209.723 342.854 219.965V219.965Z" fill="#2AACEF"/>
</svg>
