<svg width="42" height="42" viewBox="0 0 42 42" fill="none" xmlns="http://www.w3.org/2000/svg">
<circle cx="21" cy="21" r="21" fill="#F6FAFD"/>
<circle cx="21" cy="21" r="20.5" stroke="#2AACEF" stroke-opacity="0.3"/>
<g clip-path="url(#clip0_799_72081)">
<path d="M16.654 14.3281C16.5949 14.2521 16.5204 14.1896 16.4354 14.1447C16.3503 14.0997 16.2567 14.0734 16.1607 14.0675C16.0647 14.0615 15.9685 14.0761 15.8786 14.1101C15.7886 14.1442 15.707 14.197 15.639 14.2651L14.605 15.3001C14.122 15.7841 13.944 16.4691 14.155 17.0701C15.0307 19.5576 16.4553 21.8161 18.323 23.6781C20.1849 25.5457 22.4434 26.9703 24.931 27.8461C25.532 28.0571 26.217 27.8791 26.701 27.3961L27.735 26.3621C27.803 26.2941 27.8559 26.2124 27.8899 26.1225C27.924 26.0325 27.9385 25.9363 27.9326 25.8403C27.9266 25.7443 27.9003 25.6507 27.8554 25.5656C27.8104 25.4806 27.7479 25.4061 27.672 25.3471L25.365 23.5531C25.2839 23.4901 25.1895 23.4465 25.089 23.4253C24.9885 23.4042 24.8846 23.4061 24.785 23.4311L22.595 23.9781C22.3027 24.0511 21.9964 24.0472 21.706 23.9668C21.4156 23.8864 21.151 23.7321 20.938 23.5191L18.482 21.0621C18.2688 20.8491 18.1143 20.5845 18.0337 20.2941C17.9531 20.0038 17.949 19.6975 18.022 19.4051L18.57 17.2151C18.5949 17.1154 18.5969 17.0115 18.5757 16.911C18.5546 16.8105 18.5109 16.7162 18.448 16.6351L16.654 14.3281ZM14.884 13.5111C15.059 13.336 15.2692 13.2002 15.5007 13.1126C15.7322 13.025 15.9797 12.9877 16.2268 13.0031C16.4738 13.0186 16.7147 13.0864 16.9336 13.202C17.1524 13.3177 17.3441 13.4786 17.496 13.6741L19.29 15.9801C19.619 16.4031 19.735 16.9541 19.605 17.4741L19.058 19.6641C19.0297 19.7775 19.0312 19.8963 19.0624 20.009C19.0936 20.1216 19.1534 20.2243 19.236 20.3071L21.693 22.7641C21.7758 22.8468 21.8787 22.9067 21.9915 22.9379C22.1044 22.9691 22.2234 22.9705 22.337 22.9421L24.526 22.3951C24.7826 22.3309 25.0504 22.3259 25.3093 22.3805C25.5681 22.435 25.8111 22.5477 26.02 22.7101L28.326 24.5041C29.155 25.149 29.231 26.3741 28.489 27.1151L27.455 28.1491C26.715 28.8891 25.609 29.2141 24.578 28.8511C21.9392 27.9226 19.5433 26.4119 17.568 24.4311C15.5873 22.4561 14.0766 20.0605 13.148 17.4221C12.786 16.3921 13.111 15.2851 13.851 14.5451L14.885 13.5111H14.884Z" fill="#2AACEF"/>
</g>
<defs>
<clipPath id="clip0_799_72081">
<rect width="16" height="16" fill="white" transform="translate(13 13)"/>
</clipPath>
</defs>
</svg>
