<svg width="93" height="93" viewBox="0 0 93 93" fill="none" xmlns="http://www.w3.org/2000/svg">
<path d="M85.9274 12.6325L40.9774 6.2496C38.1688 5.8373 35.65 8.0135 35.65 10.85V25.6587L51.3469 23.3507C54.0284 22.957 56.7347 23.7475 58.7807 25.5145C60.8267 27.2815 62 29.8468 62 32.5515V60.45L70.401 66.0501C71.4008 66.7166 72.695 66.853 73.8591 66.3322C75.1828 65.7386 75.95 64.3281 75.95 62.8773V55.8H85.25C87.8168 55.8 89.9 53.7183 89.9 51.15V17.2329C89.9 14.9265 88.209 12.9688 85.9274 12.6325Z" fill="#F7732F"/>
<path d="M52.0226 27.9496L7.07263 34.3325C4.79103 34.6688 3.09998 36.6265 3.09998 38.9329V72.85C3.09998 75.4183 5.18318 77.5 7.74998 77.5H17.05V84.5773C17.05 86.0281 17.8172 87.4386 19.1409 88.0322C20.305 88.553 21.6008 88.4166 22.599 87.7501L37.975 77.5H52.7C55.2668 77.5 57.35 75.4183 57.35 72.85V32.55C57.35 29.7135 54.8312 27.5373 52.0226 27.9496ZM51.15 52.7H37.2V36.3955L51.15 34.3449V52.7Z" fill="#2AACEF"/>
</svg>
