<svg width="24" height="24" viewBox="0 0 24 24" fill="none" xmlns="http://www.w3.org/2000/svg">
<path d="M16.25 6.5V6V5.25C16.25 4.12283 15.8022 3.04183 15.0052 2.2448C14.2082 1.44777 13.1272 1 12 1C10.8728 1 9.79183 1.44777 8.9948 2.2448C8.19777 3.04183 7.75 4.12283 7.75 5.25V6V6.5H8.25H15.75H16.25ZM16.75 6V6.5H17.25H22V21C22 21.663 21.7366 22.2989 21.2678 22.7678C20.7989 23.2366 20.163 23.5 19.5 23.5H4.5C3.83696 23.5 3.20107 23.2366 2.73223 22.7678C2.26339 22.2989 2 21.663 2 21V6.5H6.75H7.25V6V5.25C7.25 3.99022 7.75044 2.78204 8.64124 1.89124C9.53204 1.00044 10.7402 0.5 12 0.5C13.2598 0.5 14.468 1.00044 15.3588 1.89124C16.2496 2.78204 16.75 3.99022 16.75 5.25V6Z" fill="#B6DCFE" stroke="#4788C7"/>
</svg>
