<svg width="496" height="254" viewBox="0 0 496 254" fill="none" xmlns="http://www.w3.org/2000/svg">
<path opacity="0.175" d="M193.036 142.921C172.311 69.3567 298.326 -1.65563 349.316 -16.9623C350.508 -17.4462 351.768 -17.7328 353.047 -17.8113C429.733 -39.0757 470.355 25.5568 486.109 86.7883C501.863 148.02 508.078 227.944 431.388 249.223C392.421 259.853 348.483 249.223 310.76 235.615C273.87 222.006 233.659 202.023 207.542 169.706C201.13 161.777 196.211 152.695 193.036 142.921V142.921Z" fill="#2AACEF"/>
<path opacity="0.175" d="M342.854 100.965C333.174 176.82 189.616 193.157 136.771 187.395C135.486 187.377 134.217 187.15 133.01 186.724C54.2203 176.442 42.1233 101.065 51.5556 38.5092C60.9878 -24.0461 86.4884 -100.108 165.288 -89.8377C205.256 -84.4511 241.49 -57.5397 270.848 -30.3047C299.441 -3.39404 328.597 30.6839 339.981 70.6341C342.779 80.4377 343.753 90.7228 342.854 100.965V100.965Z" fill="#2AACEF"/>
</svg>
