<svg width="42" height="42" viewBox="0 0 42 42" fill="none" xmlns="http://www.w3.org/2000/svg">
<circle cx="21" cy="21" r="21" fill="#F6FAFD"/>
<circle cx="21" cy="21" r="20.5" stroke="#2AACEF" stroke-opacity="0.3"/>
<g clip-path="url(#clip0_799_72096)">
<path d="M18.354 18.119L20.538 13.792C20.5799 13.705 20.6455 13.6314 20.7272 13.5798C20.8088 13.5282 20.9034 13.5005 21 13.5C21.183 13.5 21.366 13.597 21.465 13.792L23.649 18.119L28.547 18.815C28.6691 18.8342 28.7808 18.8949 28.8633 18.9869C28.9459 19.0789 28.9941 19.1966 29 19.32C29.007 19.4022 28.9953 19.4849 28.9659 19.5619C28.9364 19.639 28.89 19.7084 28.83 19.765L25.307 23.121L26.137 27.851C26.215 28.294 25.777 28.641 25.391 28.443L21 26.187L16.611 28.443C16.5651 28.4668 16.5159 28.4837 16.465 28.493C16.123 28.553 15.797 28.239 15.865 27.851L16.695 23.121L13.173 19.765C13.1182 19.7132 13.0747 19.6507 13.0451 19.5814C13.0155 19.512 13.0005 19.4374 13.001 19.362C13.001 19.2554 13.0304 19.1509 13.086 19.06C13.1254 18.9941 13.1791 18.9378 13.2431 18.8954C13.3072 18.853 13.3799 18.8255 13.456 18.815L18.354 18.119ZM21 25.027C21.0807 25.0267 21.1603 25.0459 21.232 25.083L24.918 26.977L24.224 23.02C24.2076 22.929 24.2138 22.8354 24.2421 22.7473C24.2703 22.6593 24.3197 22.5795 24.386 22.515L27.293 19.745L23.241 19.169C23.1571 19.1563 23.0775 19.1235 23.0091 19.0734C22.9406 19.0232 22.8853 18.9572 22.848 18.881L21.001 15.223L21 15.226V25.026V25.027Z" fill="#2AACEF"/>
</g>
<defs>
<clipPath id="clip0_799_72096">
<rect width="16" height="16" fill="white" transform="translate(13 13)"/>
</clipPath>
</defs>
</svg>
