<svg width="133" height="44" viewBox="0 0 133 44" fill="none" xmlns="http://www.w3.org/2000/svg">
<g clip-path="url(#clip0_1090_17588)">
<path d="M122.238 -0.000101141H10.5825C10.1755 -0.000101141 9.7734 -0.000101141 9.36748 0.00209886C9.02768 0.00429886 8.6906 0.0106899 8.34754 0.0160689C7.60226 0.0247608 6.85873 0.0897427 6.12341 0.21045C5.38913 0.333785 4.67785 0.566306 4.01363 0.90015C3.35022 1.23682 2.74405 1.67428 2.2171 2.19668C1.68738 2.7176 1.24582 3.31972 0.909394 3.97987C0.572041 4.63872 0.33812 5.34473 0.215709 6.07353C0.0921336 6.8014 0.0256368 7.53767 0.0168149 8.27573C0.0065151 8.61299 0.0054274 8.95137 0 9.28867V34.7144C0.0054274 35.0559 0.0065151 35.3868 0.0168149 35.7284C0.0256395 36.4665 0.0921363 37.2027 0.215709 37.9305C0.337782 38.6598 0.571717 39.3662 0.909394 40.0253C1.24567 40.6833 1.68729 41.283 2.2171 41.801C2.74205 42.3257 3.34862 42.7635 4.01363 43.0976C4.67785 43.4323 5.38905 43.6662 6.12341 43.7914C6.85885 43.9112 7.6023 43.9762 8.34754 43.9859C8.6906 43.9934 9.02768 43.9977 9.36748 43.9977C9.77339 43.9999 10.1755 43.9999 10.5825 43.9999H122.238C122.637 43.9999 123.043 43.9999 123.441 43.9977C123.78 43.9977 124.126 43.9934 124.465 43.9859C125.208 43.9767 125.951 43.9117 126.684 43.7914C127.421 43.6653 128.135 43.4315 128.802 43.0976C129.467 42.7633 130.073 42.3255 130.597 41.801C131.126 41.2809 131.568 40.6817 131.909 40.0253C132.244 39.3657 132.476 38.6593 132.596 37.9305C132.72 37.2026 132.788 36.4665 132.802 35.7284C132.806 35.3868 132.806 35.0559 132.806 34.7144C132.815 34.3147 132.815 33.9173 132.815 33.5112V10.4896C132.815 10.0868 132.815 9.6872 132.806 9.28867C132.806 8.95137 132.806 8.61299 132.802 8.27568C132.788 7.53756 132.72 6.80146 132.596 6.07348C132.475 5.34511 132.244 4.63915 131.909 3.97983C131.224 2.65661 130.137 1.57953 128.802 0.900051C128.135 0.567023 127.421 0.334563 126.684 0.210351C125.951 0.0891119 125.208 0.0241074 124.465 0.0159149C124.126 0.0105469 123.78 0.00410086 123.441 0.00195586C123.043 -0.000244141 122.637 -0.000244141 122.238 -0.000244141V-0.000101141Z" fill="white"/>
<path d="M132.802 8.27568C132.788 7.53756 132.72 6.80146 132.596 6.07348C132.475 5.34511 132.244 4.63915 131.909 3.97983M132.802 8.27568L132.302 8.28211C132.302 8.28298 132.302 8.28386 132.302 8.28474M132.802 8.27568L132.302 8.28474M132.802 8.27568C132.806 8.61299 132.806 8.95137 132.806 9.28867C132.815 9.6872 132.815 10.0868 132.815 10.4896V33.5112C132.815 33.9173 132.815 34.3147 132.806 34.7144C132.806 35.0559 132.806 35.3868 132.802 35.7284M132.302 8.28474C132.289 7.57168 132.222 6.86057 132.103 6.15729L132.103 6.15517C131.99 5.47772 131.775 4.82099 131.464 4.20749M132.302 8.28474C132.306 8.61742 132.306 8.95171 132.306 9.28867L132.306 9.29952C132.315 9.69172 132.315 10.0859 132.315 10.4896V33.5112C132.315 33.9182 132.315 34.3102 132.306 34.7035L132.306 34.7035V34.7144C132.306 35.0555 132.306 35.3824 132.302 35.7194M131.464 4.20749C131.464 4.20823 131.464 4.20898 131.465 4.20973L131.909 3.97983M131.464 4.20749C131.463 4.20707 131.463 4.20665 131.463 4.20623L131.909 3.97983M131.464 4.20749C130.827 2.97915 129.818 1.97839 128.577 1.34641M131.909 3.97983C131.224 2.65661 130.137 1.57953 128.802 0.900051M128.802 0.900051L128.579 1.34745C128.578 1.3471 128.578 1.34676 128.577 1.34641M128.802 0.900051C128.135 0.567023 127.421 0.334563 126.684 0.210351M128.802 0.900051L128.576 1.34564C128.576 1.3459 128.576 1.34615 128.577 1.34641M128.577 1.34641C127.955 1.03612 127.289 0.819409 126.602 0.703499M126.684 0.210351L126.603 0.703663C126.603 0.703608 126.602 0.703553 126.602 0.703499M126.684 0.210351C125.951 0.0891119 125.208 0.0241074 124.465 0.0159149M126.684 0.210351L126.601 0.703391C126.601 0.703427 126.602 0.703463 126.602 0.703499M126.602 0.703499C125.894 0.586518 125.177 0.523793 124.459 0.515885L124.457 0.515858C124.394 0.514856 124.331 0.513827 124.268 0.512798L124.465 0.0159149M124.465 0.0159149C124.402 0.0149285 124.34 0.0139057 124.277 0.01288C123.999 0.0083232 123.717 0.00370672 123.441 0.00195586L123.439 0.501948L124.465 0.0159149ZM132.302 35.7194L132.802 35.7284M132.302 35.7194C132.289 36.4324 132.222 37.1435 132.103 37.8467L132.103 37.8491C131.991 38.5269 131.775 39.1839 131.464 39.7976M132.302 35.7194C132.302 35.7203 132.302 35.7212 132.302 35.7221L132.802 35.7284M132.802 35.7284C132.788 36.4665 132.72 37.2026 132.596 37.9305C132.476 38.6593 132.244 39.3657 131.909 40.0253M131.464 39.7976C131.464 39.7967 131.464 39.7959 131.465 39.7951L131.909 40.0253M131.464 39.7976C131.148 40.4062 130.737 40.962 130.247 41.4446L130.244 41.4474C129.757 41.9339 129.195 42.3401 128.579 42.6504M131.464 39.7976C131.463 39.798 131.463 39.7984 131.463 39.7988L131.909 40.0253M131.909 40.0253C131.568 40.6817 131.126 41.2809 130.597 41.801C130.073 42.3255 129.467 42.7633 128.802 43.0976M128.579 42.6504L128.802 43.0976M128.579 42.6504C127.956 42.9621 127.289 43.1805 126.602 43.2984M128.579 42.6504C128.578 42.6506 128.578 42.6507 128.578 42.6509L128.802 43.0976M128.802 43.0976C128.135 43.4315 127.421 43.6653 126.684 43.7914M126.602 43.2984C126.602 43.2982 126.603 43.2981 126.604 43.298L126.684 43.7914M126.602 43.2984C125.893 43.4144 125.177 43.4771 124.458 43.4859L124.454 43.486C124.119 43.4935 123.775 43.4977 123.441 43.4977L123.439 43.4977C123.042 43.4999 122.639 43.4999 122.24 43.4999H122.238H10.5825H10.5804C10.1739 43.4999 9.77382 43.4999 9.37019 43.4977H9.36748C9.03191 43.4977 8.69851 43.4935 8.35843 43.486L8.35407 43.486C7.63418 43.4766 6.91603 43.4138 6.20561 43.2982M126.602 43.2984C126.601 43.2984 126.601 43.2985 126.6 43.2986L126.684 43.7914M126.684 43.7914C125.951 43.9117 125.208 43.9767 124.465 43.9859C124.126 43.9934 123.78 43.9977 123.441 43.9977C123.043 43.9999 122.637 43.9999 122.238 43.9999H10.5825H10.5804C10.1741 43.9999 9.77269 43.9999 9.36748 43.9977C9.02768 43.9977 8.6906 43.9934 8.34754 43.9859C7.6023 43.9762 6.85885 43.9112 6.12341 43.7914M6.20561 43.2982C6.20623 43.2984 6.20685 43.2985 6.20747 43.2986L6.12341 43.7914M6.20561 43.2982C5.52086 43.1813 4.85782 42.9631 4.23865 42.6511L4.23809 42.6508C3.62065 42.3406 3.05766 41.9342 2.57057 41.4474L2.57059 41.4473L2.56665 41.4435C2.07546 40.9632 1.66619 40.4074 1.35463 39.7977L1.35439 39.7973C1.0401 39.1838 0.822425 38.5265 0.708848 37.848L0.708654 37.8468C0.589441 37.1447 0.525292 36.4344 0.516779 35.7225H0.516862L0.516588 35.7134C0.509688 35.4845 0.507046 35.2637 0.504322 35.036C0.503048 34.9295 0.501755 34.8215 0.5 34.7104M6.20561 43.2982C6.20499 43.2981 6.20438 43.298 6.20376 43.2979L6.12341 43.7914M6.12341 43.7914C5.38905 43.6662 4.67785 43.4323 4.01363 43.0976C3.34862 42.7635 2.74205 42.3257 2.2171 41.801C1.68729 41.283 1.24567 40.6833 0.909394 40.0253C0.571717 39.3662 0.337782 38.6598 0.215709 37.9305C0.0921363 37.2027 0.0256395 36.4665 0.0168149 35.7284C0.00977812 35.495 0.00704114 35.2666 0.00428249 35.0364C0.00300328 34.9297 0.00171942 34.8226 0 34.7144M0.5 34.7104V34.7144H0M0.5 34.7104V9.29268M0.5 34.7104C0.499979 34.7091 0.499958 34.7077 0.499937 34.7064L0 34.7144M0 34.7144V9.28867M0.5 9.29268C0.499979 9.29403 0.499957 9.29537 0.499935 9.29672L0 9.28867M0.5 9.29268C0.501779 9.18142 0.503083 9.07217 0.504373 8.96409C0.507079 8.73725 0.509724 8.51553 0.516582 8.29099L0.516668 8.29099L0.516779 8.2817C0.52529 7.5697 0.589439 6.85942 0.708656 6.15722L0.708801 6.15635C0.822712 5.47816 1.04041 4.82107 1.35445 4.20776L1.35488 4.2069C1.66678 3.59486 2.07626 3.03644 2.56768 2.55318L2.56768 2.55318L2.56911 2.55176C3.05881 2.0663 3.62224 1.65958 4.23907 1.34644M0.5 9.29268V9.28867H0M0 9.28867C0.00173979 9.18055 0.00303365 9.07231 0.00432797 8.96404C0.00707135 8.73454 0.00981679 8.50488 0.0168149 8.27573C0.0256368 7.53767 0.0921336 6.8014 0.215709 6.07353C0.33812 5.34473 0.572041 4.63872 0.909394 3.97987C1.24582 3.31972 1.68738 2.7176 2.2171 2.19668C2.74405 1.67428 3.35022 1.23682 4.01363 0.90015M4.23907 1.34644C4.23877 1.3466 4.23847 1.34675 4.23817 1.3469L4.01363 0.90015M4.23907 1.34644C4.85804 1.03546 5.52092 0.818745 6.20534 0.703693M4.23907 1.34644C4.23935 1.3463 4.23963 1.34616 4.2399 1.34602L4.01363 0.90015M4.01363 0.90015L6.20534 0.703693M6.20534 0.703693C6.91549 0.587165 7.63358 0.52443 8.35337 0.516039L8.35538 0.516007C8.42737 0.514879 8.49885 0.51371 8.56994 0.512548L6.20534 0.703693ZM122.238 0.499899H122.721H10.5825H122.238Z" stroke="black" stroke-opacity="0.2"/>
<path d="M9.44967 33.3792L9.38231 33.3146C9.11861 33.0352 8.96289 32.6011 8.96289 32.0392V32.1714V12.0963V12.2289C8.96289 11.6204 9.14443 11.1619 9.44857 10.8871L20.6771 22.1335L9.44967 33.3792Z" fill="url(#paint0_linear_1090_17588)"/>
<path d="M24.4203 25.8835L20.677 22.1335L24.42 18.3841L28.9389 20.9555C29.5128 21.2821 29.8349 21.703 29.8888 22.1331V22.1349C29.8349 22.5639 29.5128 22.9852 28.9389 23.3117L24.4204 25.8835" fill="url(#paint1_linear_1090_17588)"/>
<path d="M10.2504 33.6746C9.93681 33.6748 9.66311 33.5724 9.44971 33.3795V33.3792L20.6771 22.1335L24.4205 25.8836L11.2657 33.37C10.9018 33.5767 10.5569 33.6746 10.2504 33.6746Z" fill="url(#paint2_linear_1090_17588)"/>
<path d="M20.6771 22.1335L9.44849 10.8871C9.66193 10.6946 9.93526 10.5925 10.2485 10.5925C10.5558 10.5925 10.901 10.6907 11.2657 10.8978L24.42 18.3841L20.677 22.1335" fill="url(#paint3_linear_1090_17588)"/>
<path d="M41.5336 11.6972C41.5336 12.5521 41.2808 13.2329 40.7745 13.7408C40.1995 14.3447 39.4501 14.6469 38.5288 14.6469C37.6465 14.6469 36.8963 14.3407 36.2794 13.7276C35.6614 13.115 35.353 12.3552 35.353 11.4488C35.353 10.5419 35.6614 9.78262 36.2794 9.16945C36.8963 8.55683 37.6465 8.25024 38.5288 8.25024C38.9665 8.25024 39.3857 8.33601 39.7836 8.50702C40.1816 8.67845 40.5008 8.90602 40.7396 9.191L40.2022 9.72951C39.7976 9.24521 39.2404 9.00324 38.5288 9.00324C37.8853 9.00324 37.3289 9.22971 36.8593 9.68291C36.3897 10.1366 36.1549 10.7249 36.1549 11.4488C36.1549 12.1727 36.3897 12.761 36.8593 13.2147C37.3289 13.6679 37.8853 13.8943 38.5288 13.8943C39.2114 13.8943 39.7805 13.6666 40.2361 13.2107C40.5318 12.9136 40.7029 12.5007 40.7486 11.9705H38.5287V11.2351H41.4909C41.5195 11.395 41.5335 11.5485 41.5335 11.6972" fill="black"/>
<path d="M41.5338 11.6971H41.4319C41.4311 12.5326 41.1875 13.1815 40.7027 13.6686L40.7017 13.6695L40.7012 13.6703C40.1444 14.2534 39.4288 14.5436 38.529 14.5448C37.6702 14.5436 36.9515 14.2502 36.3513 13.6555C35.7524 13.0596 35.4563 12.3321 35.4551 11.4488C35.4563 10.5651 35.7524 9.83796 36.3513 9.24245C36.9515 8.64731 37.6702 8.35352 38.529 8.35228C38.9536 8.35228 39.358 8.43529 39.7436 8.60066C40.1296 8.76733 40.4346 8.98572 40.6618 9.25685L40.7398 9.19099L40.6678 9.11885L40.1304 9.65773L40.2024 9.7295L40.2809 9.66419C39.8574 9.15591 39.2629 8.89968 38.529 8.90119C37.8617 8.90037 37.2746 9.13922 36.7891 9.60962C36.2988 10.0815 36.0525 10.703 36.0533 11.4488C36.0525 12.1946 36.2988 12.816 36.7891 13.2879C37.2746 13.7583 37.8617 13.9971 38.529 13.9963C39.2342 13.9976 39.8352 13.7579 40.3083 13.2828C40.6243 12.9654 40.8035 12.5259 40.8504 11.9793L40.8599 11.8685H38.6309V11.3371H41.4912V11.2351L41.3908 11.253C41.4187 11.4078 41.4319 11.5548 41.4319 11.6971H41.6356C41.6356 11.542 41.6213 11.3826 41.5914 11.2168L41.5763 11.133H38.4271V12.0726H40.7489V11.9705L40.6474 11.9618C40.6025 12.4752 40.4393 12.8619 40.1643 13.1386C39.7265 13.5754 39.1893 13.791 38.529 13.7922C37.9094 13.7914 37.3837 13.5777 36.9304 13.1413C36.4815 12.7064 36.2582 12.1511 36.2571 11.4488C36.2582 10.7464 36.4815 10.1911 36.9304 9.75624C37.3837 9.31977 37.9094 9.1061 38.529 9.10528C39.2179 9.10693 39.7381 9.33491 40.1246 9.79531L40.1962 9.88061L40.8119 9.26318L40.8779 9.19705L40.8178 9.1256C40.5675 8.82672 40.234 8.58947 39.824 8.41337C39.4134 8.23671 38.98 8.14819 38.529 8.14819C37.6233 8.14742 36.8417 8.46629 36.2077 9.09735C35.5713 9.72716 35.2506 10.5188 35.2515 11.4488C35.2506 12.3783 35.5713 13.1704 36.2081 13.8006C36.8417 14.4312 37.6233 14.7497 38.529 14.7489C39.4722 14.7497 40.2547 14.4359 40.8485 13.8113L40.7748 13.7408L40.8468 13.813C41.3745 13.2848 41.6364 12.5713 41.6357 11.6971H41.5338H41.5338ZM46.2298 9.13958H43.446V11.0809H45.9564V11.8166H43.446V13.7579H46.2298V14.5101H42.6612V8.38741H46.2298V9.13958Z" fill="black"/>
<path d="M46.2295 9.13962V9.03758H43.3439V11.183H45.8543V11.7143L43.3438 11.7146V13.86H46.1276V14.4081H42.7628V8.48948H46.1276V9.13962H46.2295V9.03758V9.13962H46.3314V8.2854H42.5591V14.6122H46.3314V13.6559H43.5476V11.9187H46.058V10.9789H43.5476V9.24166H46.3314V9.13962H46.2295ZM49.5418 14.5102H48.7558V9.13957H47.0485V8.3874H51.2492V9.13957H49.5418V14.5101" fill="black"/>
<path d="M49.5419 14.5102V14.4081H48.8578V9.03758H47.1505V8.48953H51.1474V9.03758H49.4401V14.5101H49.5419V14.4081V14.5101H49.6438V9.24166H51.3511V8.2854H46.9468V9.24161H48.6541V14.6121H49.6438V14.5101H49.5419V14.5102ZM54.2886 14.5102V8.3874H55.0738V14.5101H54.2886" fill="black"/>
<path d="M54.2886 14.5102H54.3905V8.48948H54.9719V14.4081H54.2886V14.5101H54.3905H54.2886V14.6122H55.1757V8.2854H54.1868V14.6122H54.2886V14.5101V14.5102ZM58.558 14.5102H57.772V9.13957H56.0648V8.3874H60.2654V9.13957H58.558V14.5101" fill="black"/>
<path d="M58.558 14.5102V14.4081H57.8738V9.03755H56.1667V8.4895H60.1634V9.03755H58.4561V14.5101H58.558V14.4081V14.5101H58.6599V9.24163H60.3672V8.28537H55.9629V9.24159H57.6701V14.6121H58.6599V14.5101H58.558V14.5102ZM64.3151 13.2063C64.7675 13.6651 65.3211 13.8942 65.9758 13.8942C66.6305 13.8942 67.1844 13.6651 67.6361 13.2063C68.089 12.7475 68.3159 12.161 68.3159 11.4488C68.3159 10.7365 68.089 10.1501 67.6361 9.69126C67.1844 9.23246 66.6305 9.00324 65.9758 9.00324C65.3211 9.00324 64.7675 9.23246 64.3151 9.69126C63.8633 10.1501 63.6365 10.7365 63.6365 11.4488C63.6365 12.161 63.8633 12.7475 64.3151 13.2063ZM68.2171 13.7189C67.6162 14.3379 66.8688 14.6469 65.9758 14.6469C65.0819 14.6469 64.3349 14.3379 63.7352 13.7189C63.1338 13.1006 62.8346 12.3437 62.8346 11.4488C62.8346 10.5538 63.1338 9.79683 63.7352 9.17866C64.3349 8.55953 65.0819 8.25024 65.9758 8.25024C66.8641 8.25024 67.6094 8.56119 68.2132 9.18265C68.8161 9.80408 69.1178 10.5594 69.1178 11.4488C69.1178 12.3437 68.8168 13.1006 68.2171 13.7189Z" fill="black"/>
<path d="M64.315 13.2063L64.2425 13.278C64.7118 13.7552 65.2972 13.9976 65.9757 13.9963C66.6538 13.9976 67.24 13.7552 67.7085 13.278C68.1808 12.8004 68.4184 12.1826 68.4177 11.4488C68.4184 10.715 68.1808 10.0971 67.7085 9.61948C67.24 9.14234 66.6538 8.9 65.9757 8.9012C65.2972 8.9 64.7118 9.14234 64.2425 9.61948C63.7713 10.0971 63.5333 10.715 63.5346 11.4488C63.5333 12.1825 63.7713 12.8004 64.2425 13.278L64.315 13.2063L64.3874 13.1345C63.9552 12.694 63.7391 12.1399 63.7383 11.4488C63.7391 10.7576 63.9552 10.2035 64.3874 9.76298C64.8235 9.32257 65.3445 9.10652 65.9757 9.10533C66.6065 9.10652 67.1286 9.32257 67.5636 9.76298C67.9966 10.2035 68.2127 10.7576 68.2135 11.4488C68.2127 12.1399 67.9966 12.694 67.5636 13.1345C67.1286 13.575 66.6065 13.791 65.9757 13.7922C65.3445 13.791 64.8235 13.575 64.3874 13.1345L64.315 13.2063ZM68.2171 13.7189L68.1442 13.648C67.5601 14.2475 66.8457 14.5436 65.9757 14.5448C65.1054 14.5436 64.391 14.2475 63.8079 13.648L63.8051 13.6447L63.8079 13.648C63.2249 13.0464 62.9373 12.321 62.9364 11.4488C62.9373 10.5766 63.2249 9.85113 63.8079 9.24961C64.391 8.65006 65.1053 8.35352 65.9757 8.35233C66.8401 8.35352 67.5528 8.6513 68.1403 9.25396C68.7253 9.85828 69.0146 10.5826 69.0158 11.4488C69.0146 12.321 68.7261 13.0464 68.1442 13.648L68.2171 13.7189L68.2904 13.7898C68.9079 13.1544 69.2203 12.3664 69.2196 11.4488C69.2203 10.5364 68.9067 9.74991 68.2863 9.11175C67.6655 8.47106 66.8879 8.1471 65.9757 8.1482C65.0588 8.1471 64.2788 8.46955 63.6619 9.10776V9.1073C63.0431 9.74308 62.7318 10.5312 62.7327 11.4488C62.7318 12.3664 63.0431 13.1544 63.6619 13.7902L63.6647 13.7931L63.6619 13.7898C64.2788 14.428 65.0588 14.7497 65.9757 14.7489C66.8922 14.7497 67.6722 14.428 68.2904 13.7898L68.2171 13.7189ZM70.22 14.5102V8.38736H71.176L74.1468 13.1504H74.1807L74.1468 11.9705V8.38736H74.9329V14.5101H74.113L71.0049 9.5162H70.971L71.0049 10.6965V14.5101H70.2201" fill="black"/>
<path d="M70.2201 14.5102H70.322V8.48948H71.1195L74.0903 13.2525H74.2853L74.2487 11.969V8.48953H74.831V14.4081H74.1696L71.0614 9.41424H70.8664L70.903 10.6983V14.4081H70.2201V14.5101H70.322H70.2201V14.6122H71.1068V10.695L71.073 9.51353L70.9711 9.51628V9.61832H71.0049V9.51628L70.9185 9.57053L74.0565 14.6122H75.0348V8.2854H74.045V11.9718L74.0788 13.1532L74.1807 13.1505V13.0484H74.1469V13.1505L74.2333 13.0963L71.2325 8.2854H70.1183V14.6122H70.2202V14.5101L70.2201 14.5102ZM102.17 31.8578H104.071V19.101H102.17L102.17 31.8578ZM119.293 23.6963L117.114 29.227H117.049L114.787 23.6963H112.739L116.131 31.4265L114.197 35.7264H116.181L121.407 23.6963L119.293 23.6963ZM108.512 30.4089C107.889 30.4089 107.021 30.0972 107.021 29.3255C107.021 28.3408 108.103 27.9634 109.036 27.9634C109.873 27.9634 110.265 28.1439 110.773 28.3904C110.625 29.5718 109.61 30.4089 108.512 30.4089ZM108.742 23.4172C107.365 23.4172 105.94 24.0246 105.35 25.3704L107.037 26.076C107.398 25.3704 108.069 25.1404 108.774 25.1404C109.757 25.1404 110.757 25.7315 110.773 26.7819V26.9131C110.429 26.7161 109.692 26.4208 108.791 26.4208C106.972 26.4208 105.12 27.4216 105.12 29.2927C105.12 30.9997 106.611 32.0994 108.282 32.0994C109.561 32.0994 110.265 31.525 110.708 30.8522H110.773V31.8367H112.608V26.9457C112.608 24.6812 110.921 23.4172 108.742 23.4172ZM96.9929 25.2492H94.2889V20.8765H96.9929C98.4141 20.8765 99.221 22.0551 99.221 23.0628C99.221 24.0514 98.4141 25.2492 96.9929 25.2492ZM96.944 19.101H92.3889V31.8578H94.2889V27.0247H96.944C99.0508 27.0247 101.122 25.4967 101.122 23.0628C101.122 20.6289 99.0508 19.101 96.944 19.101ZM72.1045 30.4113C70.7911 30.4113 69.6916 29.3099 69.6916 27.7972C69.6916 26.2685 70.7911 25.1504 72.1045 25.1504C73.4011 25.1504 74.4187 26.2685 74.4187 27.7972C74.4187 29.3099 73.4011 30.4113 72.1045 30.4113H72.1045ZM74.2874 24.4106H74.2217C73.7951 23.9011 72.974 23.4408 71.9402 23.4408C69.7736 23.4408 67.7877 25.3477 67.7877 27.7972C67.7877 30.2303 69.7735 32.1209 71.9402 32.1209C72.974 32.1209 73.7951 31.6605 74.2217 31.1347H74.2874V31.7594C74.2874 33.4201 73.4011 34.3078 71.9732 34.3078C70.8078 34.3078 70.0856 33.469 69.7898 32.7623L68.1324 33.4527C68.6084 34.6035 69.8723 36.0174 71.9732 36.0174C74.2053 36.0174 76.0929 34.7019 76.0929 31.4963V23.7038H74.2874V24.4106ZM77.4058 31.8578H79.3098V19.1005H77.4058V31.8578ZM82.1166 27.6493C82.0673 25.9723 83.4132 25.1176 84.3815 25.1176C85.137 25.1176 85.7768 25.4955 85.9898 26.0385L82.1166 27.6493ZM88.0254 26.2027C87.6647 25.2324 86.5644 23.4408 84.3158 23.4408C82.0836 23.4408 80.229 25.1998 80.229 27.7808C80.229 30.214 82.0673 32.1209 84.5291 32.1209C86.5155 32.1209 87.6647 30.9043 88.1405 30.1975L86.6632 29.211C86.1711 29.9345 85.4977 30.4113 84.5291 30.4113C83.5608 30.4113 82.8716 29.9672 82.4282 29.0962L88.222 26.6958L88.0254 26.2027ZM41.8652 24.7724V26.6136H46.2638C46.1325 27.6493 45.7878 28.4055 45.2625 28.9316C44.6226 29.573 43.6214 30.2797 41.8651 30.2797C39.1568 30.2797 37.0397 28.0933 37.0397 25.3807C37.0397 22.6682 39.1569 20.4815 41.8652 20.4815C43.326 20.4815 44.3926 21.057 45.1805 21.7968L46.4772 20.4981C45.3776 19.4458 43.9166 18.6403 41.8652 18.6403C38.1556 18.6403 35.0371 21.6653 35.0371 25.3807C35.0371 29.0962 38.1556 32.1209 41.8652 32.1209C43.8677 32.1209 45.3776 31.4636 46.5592 30.2303C47.7738 29.0137 48.1515 27.3041 48.1515 25.9233C48.1515 25.4955 48.1188 25.1013 48.0528 24.7724H41.8652ZM53.1524 30.4113C51.839 30.4113 50.7064 29.3262 50.7064 27.7808C50.7064 26.219 51.839 25.1504 53.1524 25.1504C54.4652 25.1504 55.5978 26.219 55.5978 27.7808C55.5978 29.3262 54.4652 30.4113 53.1524 30.4113ZM53.1524 23.4408C50.7557 23.4408 48.8025 25.2655 48.8025 27.7808C48.8025 30.2797 50.7557 32.1209 53.1524 32.1209C55.5485 32.1209 57.5017 30.2797 57.5017 27.7808C57.5017 25.2655 55.5485 23.4408 53.1524 23.4408ZM62.6407 30.4113C61.3279 30.4113 60.1951 29.3262 60.1951 27.7808C60.1951 26.219 61.3279 25.1504 62.6407 25.1504C63.9536 25.1504 65.0862 26.219 65.0862 27.7808C65.0862 29.3262 63.9536 30.4113 62.6407 30.4113H62.6407ZM62.6407 23.4408C60.2442 23.4408 58.2913 25.2655 58.2913 27.7808C58.2913 30.2797 60.2442 32.1209 62.6407 32.1209C65.0369 32.1209 66.9902 30.2797 66.9902 27.7808C66.9902 25.2655 65.0369 23.4408 62.6407 23.4408H62.6407Z" fill="black"/>
</g>
<defs>
<linearGradient id="paint0_linear_1090_17588" x1="16.1386" y1="11.8841" x2="6.46212" y2="21.5761" gradientUnits="userSpaceOnUse">
<stop stop-color="#00A0FF"/>
<stop offset="0.00657" stop-color="#00A1FF"/>
<stop offset="0.2601" stop-color="#00BEFF"/>
<stop offset="0.5122" stop-color="#00D2FF"/>
<stop offset="0.7604" stop-color="#00DFFF"/>
<stop offset="1" stop-color="#00E3FF"/>
</linearGradient>
<linearGradient id="paint1_linear_1090_17588" x1="30.588" y1="22.0687" x2="8.65893" y2="22.0687" gradientUnits="userSpaceOnUse">
<stop stop-color="#FFE000"/>
<stop offset="0.4087" stop-color="#FFBD00"/>
<stop offset="0.7754" stop-color="#FFA500"/>
<stop offset="1" stop-color="#FF9C00"/>
</linearGradient>
<linearGradient id="paint2_linear_1090_17588" x1="22.4331" y1="25.6989" x2="6.03558" y2="42.0029" gradientUnits="userSpaceOnUse">
<stop stop-color="#FF3A44"/>
<stop offset="1" stop-color="#C31162"/>
</linearGradient>
<linearGradient id="paint3_linear_1090_17588" x1="6.55457" y1="9.21981" x2="13.8626" y2="16.4973" gradientUnits="userSpaceOnUse">
<stop stop-color="#32A071"/>
<stop offset="0.0685" stop-color="#2DA771"/>
<stop offset="0.4762" stop-color="#15CF74"/>
<stop offset="0.8009" stop-color="#06E775"/>
<stop offset="1" stop-color="#00F076"/>
</linearGradient>
<clipPath id="clip0_1090_17588">
<rect width="132.815" height="44" fill="white"/>
</clipPath>
</defs>
</svg>
