<svg width="28" height="24" viewBox="0 0 28 24" fill="none" xmlns="http://www.w3.org/2000/svg">
<path opacity="0.1" d="M27.0626 9.64154C28.923 16.0593 17.6472 22.2477 13.0922 23.5571C12.9859 23.5877 12.8792 23.6173 12.7721 23.646C5.92695 25.479 2.31449 19.8568 0.887689 14.5291C-0.539107 9.20135 -1.05811 2.2163 5.78739 0.383333C9.26204 -0.547383 13.204 0.361461 16.5526 1.56365C19.8457 2.74605 23.4359 4.50403 25.7698 7.30312C26.3587 7.98424 26.799 8.78066 27.0626 9.64154Z" fill="#32D74B"/>
<path d="M16.736 7.97006C16.8042 7.90042 16.8857 7.8451 16.9756 7.80734C17.0655 7.76957 17.162 7.75012 17.2595 7.75012C17.357 7.75012 17.4535 7.76957 17.5434 7.80734C17.6333 7.8451 17.7147 7.90042 17.783 7.97006C18.069 8.25906 18.073 8.72606 17.793 9.02006L11.88 16.0101C11.8128 16.0838 11.7314 16.143 11.6406 16.1842C11.5497 16.2253 11.4515 16.2475 11.3518 16.2494C11.2521 16.2513 11.1531 16.2328 11.0608 16.1951C10.9685 16.1574 10.8848 16.1012 10.815 16.0301L7.21698 12.3841C7.07822 12.2425 7.00049 12.0523 7.00049 11.8541C7.00049 11.6559 7.07822 11.4656 7.21698 11.3241C7.28523 11.2544 7.36668 11.1991 7.45657 11.1613C7.54646 11.1236 7.64298 11.1041 7.74048 11.1041C7.83798 11.1041 7.9345 11.1236 8.02439 11.1613C8.11428 11.1991 8.19573 11.2544 8.26398 11.3241L11.316 14.4171L16.716 7.99206C16.7222 7.98433 16.7289 7.97698 16.736 7.97006Z" fill="#32D74B"/>
</svg>
