<svg width="281" height="213" viewBox="0 0 281 213" fill="none" xmlns="http://www.w3.org/2000/svg">
<path d="M273.257 111.163V97.1101H267.926C267.287 94.653 266.313 92.3378 265.061 90.2032L268.83 86.4305L258.885 76.4924L255.11 80.2587C252.974 79.0076 250.657 78.0338 248.198 77.3953V72.0684H234.136V77.3953C231.678 78.0338 229.361 79.0076 227.225 80.2587L223.45 76.4924L213.505 86.4305L217.274 90.2032C216.022 92.3378 215.054 94.653 214.409 97.1101H209.078V111.163H214.409C215.054 113.62 216.022 115.935 217.274 118.07L213.505 121.842L223.45 131.78L227.225 128.014C229.361 129.265 231.678 130.233 234.136 130.877V136.204H248.198V130.877C250.657 130.233 252.974 129.265 255.11 128.014L258.885 131.78L268.83 121.842L265.061 118.07C266.313 115.935 267.287 113.62 267.926 111.163H273.257ZM241.171 116.309C234.44 116.309 228.987 110.86 228.987 104.133C228.987 97.4068 234.44 91.9638 241.171 91.9638C247.901 91.9638 253.348 97.4132 253.348 104.133C253.348 110.853 247.895 116.309 241.171 116.309Z" fill="#A2C7EB"/>
<path d="M230.769 146.368L228.091 139.397L225.445 140.409C224.658 139.313 223.735 138.352 222.709 137.527L223.857 134.941L217.036 131.903L215.881 134.489C214.584 134.276 213.248 134.231 211.906 134.379L210.893 131.735L203.917 134.412L204.93 137.056C203.833 137.843 202.871 138.765 202.045 139.79L199.457 138.642L196.418 145.459L199.006 146.613C198.793 147.91 198.754 149.245 198.896 150.586L196.25 151.599L198.928 158.57L201.574 157.557C202.361 158.654 203.284 159.615 204.31 160.44L203.162 163.026L209.983 166.064L211.138 163.478C212.435 163.691 213.771 163.729 215.113 163.587L216.126 166.231L223.102 163.555L222.089 160.911C223.186 160.124 224.148 159.202 224.974 158.177L227.562 159.324L230.601 152.508L228.013 151.353C228.226 150.057 228.272 148.722 228.123 147.381L230.769 146.368ZM215.836 155.023C212.5 156.3 208.757 154.636 207.472 151.302C206.195 147.968 207.86 144.227 211.196 142.95C214.532 141.673 218.275 143.337 219.553 146.671C220.831 150.006 219.166 153.746 215.829 155.023H215.836Z" stroke="#A2C7EB" stroke-miterlimit="10"/>
<path d="M207.923 121.926L206.116 117.219L204.328 117.902C203.799 117.161 203.173 116.509 202.476 115.955L203.257 114.207L198.649 112.156L197.868 113.904C196.991 113.762 196.087 113.73 195.184 113.833L194.5 112.046L189.789 113.852L190.473 115.639C189.731 116.167 189.079 116.793 188.524 117.489L186.775 116.709L184.723 121.314L186.472 122.094C186.33 122.971 186.298 123.868 186.401 124.777L184.613 125.46L186.42 130.168L188.208 129.485C188.743 130.226 189.363 130.878 190.06 131.432L189.279 133.18L193.887 135.231L194.668 133.483C195.545 133.625 196.442 133.657 197.352 133.554L198.036 135.34L202.747 133.535L202.063 131.748C202.805 131.213 203.457 130.594 204.012 129.897L205.761 130.678L207.813 126.073L206.064 125.293C206.206 124.416 206.238 123.513 206.135 122.61L207.923 121.926ZM197.836 127.776C195.584 128.64 193.054 127.511 192.19 125.261C191.325 123.01 192.454 120.482 194.706 119.618C196.959 118.753 199.488 119.882 200.353 122.133C201.218 124.383 200.088 126.912 197.836 127.776Z" stroke="#A2C7EB" stroke-miterlimit="10"/>
<path d="M206.282 39.4879C206.282 46.5496 202.977 52.8439 197.841 56.9068C194.059 59.9056 189.277 61.6856 184.063 61.6856C178.848 61.6856 174.079 59.9056 170.285 56.9068C165.141 52.8374 161.844 46.5431 161.844 39.4879C161.844 27.2282 171.788 17.2837 184.063 17.2837C196.337 17.2837 206.282 27.2217 206.282 39.4879Z" fill="#0097D8" stroke="#0097D8" stroke-miterlimit="10"/>
<path d="M184.966 39.3849C188.952 38.893 191.785 35.2646 191.292 31.2808C190.8 27.297 187.169 24.4664 183.183 24.9583C179.197 25.4503 176.364 29.0786 176.856 33.0624C177.349 37.0462 180.979 39.8769 184.966 39.3849Z" fill="white"/>
<path d="M197.841 54.1078C194.059 57.1066 189.277 58.8866 184.063 58.8866C178.849 58.8866 174.08 57.1066 170.285 54.1078C171.705 47.8586 173.015 42.4672 174.377 41.1C176.3 39.1782 181.404 38.0625 184.057 38.0625C186.709 38.0625 192.059 39.4233 193.046 40.41C195.06 42.4156 196.796 47.9554 197.841 54.1078Z" fill="white"/>
<path d="M152.137 94.2146V83.2512C152.137 80.2588 154.563 77.834 157.558 77.834H192.122C195.116 77.834 197.542 80.2588 197.542 83.2512V94.2146C197.542 97.207 195.116 99.6319 192.122 99.6319H157.564C154.57 99.6383 152.137 97.207 152.137 94.2146Z" fill="#0097D8"/>
<path d="M166.735 93.6406L150.008 109.925L177.118 96.2332" fill="#0097D8"/>
<path d="M156.332 82.9804V82.9223C156.332 82.4774 156.693 82.1162 157.139 82.1162H174.227C174.672 82.1162 175.034 82.4774 175.034 82.9223V82.9804C175.034 83.4254 174.672 83.7865 174.227 83.7865H157.139C156.693 83.7865 156.332 83.4254 156.332 82.9804Z" fill="white"/>
<path d="M175.801 82.9804V82.9223C175.801 82.4774 176.162 82.1162 176.607 82.1162H191.521C191.966 82.1162 192.328 82.4774 192.328 82.9223V82.9804C192.328 83.4254 191.966 83.7865 191.521 83.7865H176.607C176.162 83.7865 175.801 83.4254 175.801 82.9804Z" fill="white"/>
<path d="M169.289 86.6498V86.5918C169.289 86.1468 169.65 85.7856 170.096 85.7856H191.521C191.966 85.7856 192.328 86.1468 192.328 86.5918V86.6498C192.328 87.0948 191.966 87.456 191.521 87.456H170.096C169.65 87.456 169.289 87.0948 169.289 86.6498Z" fill="white"/>
<path d="M156.332 86.6498V86.5918C156.332 86.1468 156.693 85.7856 157.139 85.7856H166.709C167.154 85.7856 167.516 86.1468 167.516 86.5918V86.6498C167.516 87.0948 167.154 87.456 166.709 87.456H157.139C156.693 87.456 156.332 87.0948 156.332 86.6498Z" fill="white"/>
<path d="M172.266 90.3193V90.2612C172.266 89.8162 172.627 89.4551 173.072 89.4551H191.522C191.968 89.4551 192.329 89.8162 192.329 90.2612V90.3193C192.329 90.7642 191.968 91.1254 191.522 91.1254H173.072C172.627 91.1254 172.266 90.7642 172.266 90.3193Z" fill="white"/>
<path d="M156.332 90.3193V90.2612C156.332 89.8162 156.693 89.4551 157.139 89.4551H169.884C170.329 89.4551 170.691 89.8162 170.691 90.2612V90.3193C170.691 90.7642 170.329 91.1254 169.884 91.1254H157.139C156.693 91.1254 156.332 90.7642 156.332 90.3193Z" fill="white"/>
<path d="M156.332 93.9892V93.9311C156.332 93.4861 156.693 93.125 157.139 93.125H161.869C162.314 93.125 162.676 93.4861 162.676 93.9311V93.9892C162.676 94.4342 162.314 94.7953 161.869 94.7953H157.139C156.693 94.7953 156.332 94.4342 156.332 93.9892Z" fill="white"/>
<path d="M164.348 93.9892V93.9311C164.348 93.4861 164.709 93.125 165.154 93.125H191.523C191.968 93.125 192.329 93.4861 192.329 93.9311V93.9892C192.329 94.4342 191.968 94.7953 191.523 94.7953H165.154C164.709 94.7953 164.348 94.4342 164.348 93.9892Z" fill="white"/>
<path d="M66.8204 78.6939C71.7998 67.9984 67.1602 55.2941 56.4575 50.318C45.7549 45.3419 33.0421 49.9785 28.0628 60.674C23.0834 71.3696 27.7231 84.0739 38.4257 89.05C49.1283 94.026 61.8411 89.3895 66.8204 78.6939Z" fill="#0097D8"/>
<path d="M44.1124 85.0602C46.8127 84.1125 48.233 81.1568 47.2847 78.4582C46.3364 75.7597 43.3787 74.3404 40.6784 75.288C37.9781 76.2357 36.5578 79.1915 37.5061 81.89C38.4543 84.5885 41.4121 86.0078 44.1124 85.0602Z" fill="white"/>
<path d="M39.6814 82.0257L39.4297 78.7431L42.153 76.8857L45.1215 78.311L45.3732 81.5936L42.6499 83.4509L39.6814 82.0257Z" fill="#0097D8"/>
<path d="M54.212 64.0815C56.9069 63.1188 58.3107 60.1551 57.3473 57.4619C56.384 54.7688 53.4184 53.3659 50.7234 54.3286C48.0284 55.2914 46.6247 58.255 47.588 60.9482C48.5514 63.6414 51.517 65.0442 54.212 64.0815Z" fill="white"/>
<path d="M49.9023 60.75L50.083 56.571L53.2323 53.8237L56.2008 55.249L56.0201 59.4215L52.8709 62.1753L49.9023 60.75Z" fill="#0097D8"/>
<path d="M45.9858 77.7759L42.0234 75.8734L44.9533 69.1212C45.1404 68.6956 45.3405 68.27 45.5599 67.8572L48.9995 61.3501L52.9619 63.2526L50.1353 69.9016C49.9159 70.4175 49.6771 70.9205 49.4125 71.4107L45.9858 77.7694V77.7759Z" fill="white"/>
<path d="M62.2812 81.181C63.0427 80.8263 75.3106 81.3873 75.3106 81.3873L66.4695 73.2744L62.2812 81.181Z" fill="#0097D8"/>
<path d="M116.398 33.5696C121.003 22.9289 116.105 10.5719 105.457 5.96946C94.8097 1.36701 82.4445 6.262 77.839 16.9027C73.2335 27.5434 78.1317 39.9005 88.7795 44.5029C99.4273 49.1053 111.792 44.2104 116.398 33.5696Z" fill="#0097D8"/>
<path d="M97.8262 7.3457H96.4258V24.9775H97.8262V7.3457Z" fill="white"/>
<path d="M81.6249 35.153L82.4219 36.3037L97.1254 26.133L96.3284 24.9823L81.6249 35.153Z" fill="white"/>
<path d="M99.0595 25.2355C99.0595 26.2996 98.1948 27.1702 97.1235 27.1702C96.0522 27.1702 95.1875 26.306 95.1875 25.2355C95.1875 24.165 96.0522 23.3008 97.1235 23.3008C98.1948 23.3008 99.0595 24.165 99.0595 25.2355Z" fill="white"/>
<path d="M154.157 167.386C152.911 148.194 161.314 128.331 175.466 116.967C175.905 136.256 167.586 155.778 154.157 167.386Z" fill="#A2C7EB"/>
<path d="M173.156 122.133C167.193 133.238 162.037 144.859 157.752 156.848C152.544 171.404 148.446 186.869 139.527 199.07" stroke="#6F8BBF" stroke-miterlimit="10" stroke-linecap="round"/>
<path d="M149.691 179.459C156.855 163.446 171.071 151.347 186.747 147.923C180.074 165.084 165.063 178.175 149.691 179.459Z" fill="#A2C7EB"/>
<path d="M182.899 151.451C172.193 160.866 161.306 170.018 150.238 178.898" stroke="#6F8BBF" stroke-miterlimit="10" stroke-linecap="round"/>
<path d="M145.465 193.408C155.035 179.124 172.692 171.668 187.302 175.744C176.557 189.848 158.862 197.323 145.465 193.408Z" fill="#A2C7EB"/>
<path d="M183.8 176.776C171.254 184.618 157.722 190.409 143.77 193.892" stroke="#6F8BBF" stroke-miterlimit="10" stroke-linecap="round"/>
<path d="M150.634 174.603C153.693 158.519 149.105 140.59 138.889 128.73C134.701 144.537 138.696 163.059 150.634 174.603Z" fill="#A2C7EB"/>
<path d="M139.941 132.832C141.955 147.794 145.536 161.808 151.086 175.506" stroke="#6F8BBF" stroke-miterlimit="10" stroke-linecap="round"/>
<path d="M145.382 188.301C144.078 171.765 135.599 156.236 123.195 147.665C123.912 156.423 126.241 164.865 129.939 172.539C134.192 181.355 140.439 186.946 145.382 188.301Z" fill="#A2C7EB"/>
<path d="M125.035 151.012C129.914 164.8 136.935 177.582 145.692 188.649" stroke="#6F8BBF" stroke-miterlimit="10" stroke-linecap="round"/>
<path d="M241.168 184.334C247.938 166.735 263.509 152.457 280.682 148.11C273.157 165.471 257.798 179.465 241.168 184.334Z" fill="#A2C7EB"/>
<path d="M276.519 151.767C266.697 159.228 257.366 167.477 248.667 176.409C238.096 187.256 228.126 199.354 215.238 206.59" stroke="#6F8BBF" stroke-miterlimit="10" stroke-linecap="round"/>
<path d="M232.27 193.266C245.17 181.922 262.697 176.944 277.953 180.284C265.02 192.853 246.383 198.393 232.27 193.266Z" fill="#A2C7EB"/>
<path d="M273.107 181.864C259.781 185.888 246.403 189.597 232.98 192.995" stroke="#6F8BBF" stroke-miterlimit="10" stroke-linecap="round"/>
<path d="M222.809 203.972C237.129 195.15 255.792 195.711 267.033 205.3C251.752 213.478 233.044 212.917 222.809 203.972Z" fill="#A2C7EB"/>
<path d="M263.516 204.785C249.215 206.655 234.869 206.294 221.117 203.708" stroke="#6F8BBF" stroke-miterlimit="10" stroke-linecap="round"/>
<path d="M235.093 189.326C244.393 176.247 247.69 158.403 243.528 143.673C233.338 156.042 229.273 174.171 235.093 189.326Z" fill="#A2C7EB"/>
<path d="M242.772 147.749C238.41 161.898 235.835 175.841 235.125 190.312" stroke="#6F8BBF" stroke-miterlimit="10" stroke-linecap="round"/>
<path d="M224.834 199.386C230.462 184.128 229.339 166.831 221.892 154.14C218.936 162.233 217.529 170.701 217.652 179.046C217.787 188.629 221.014 196.162 224.834 199.386Z" fill="#A2C7EB"/>
<path d="M222.135 157.867C220.793 172.139 221.754 186.391 224.955 199.818" stroke="#6F8BBF" stroke-miterlimit="10" stroke-linecap="round"/>
<path d="M49.3114 153.566C42.4128 132.471 23.1496 115.426 0.75 110.589C10.1719 128.84 27.2539 143.364 49.3114 153.566Z" fill="#A2C7EB"/>
<path d="M50.4781 156.835C35.3643 148.29 16.4238 146.407 0 151.811C15.2299 159.415 33.2735 161.53 50.4781 156.835Z" fill="#A2C7EB"/>
<path d="M54.6611 161.414C38.3212 159.15 21.2134 163.175 7.94531 172.403C22.9881 177.872 41.0445 174.325 54.6611 161.414Z" fill="#A2C7EB"/>
<path d="M59.7506 171.404C43.5721 171.339 27.6646 179.02 18.1523 191.499C25.3543 192.944 33.0015 192.079 39.6033 189.087C46.2115 186.095 51.742 180.993 59.7442 171.404H59.7506Z" fill="#A2C7EB"/>
<path d="M71.1602 188.127C55.2076 185.392 38.2094 190.332 26.7031 201.051C33.5695 203.656 41.2554 204.075 48.2831 202.224C55.3108 200.373 61.6351 196.259 71.1602 188.133V188.127Z" fill="#A2C7EB"/>
<path d="M53.9365 154.565C43.4046 140.377 40.5458 121.256 46.528 104.985C51.097 112.717 55.04 120.895 56.8792 129.588C58.7184 138.281 58.3635 147.549 53.9365 154.565Z" fill="#A2C7EB"/>
<path d="M60.3693 168.257C57.8719 153.179 63.0345 137.204 73.9278 126.286C75.1797 141.88 70.4043 157.77 60.3693 168.257Z" fill="#A2C7EB"/>
<path d="M5.64844 114.368C37.7087 134.87 62.7864 165.425 76.0222 200.147" stroke="#6F8BBF" stroke-miterlimit="10" stroke-linecap="round"/>
<path d="M47.5234 112.466C51.4213 128.292 53.7961 144.447 54.5963 160.653" stroke="#6F8BBF" stroke-miterlimit="10" stroke-linecap="round"/>
<path d="M71.536 132.406C70.2583 145.175 66.3088 157.654 60.0039 168.895" stroke="#6F8BBF" stroke-miterlimit="10" stroke-linecap="round"/>
<path d="M6.75391 152.179C21.4546 154.972 36.3941 156.487 51.3401 156.706" stroke="#6F8BBF" stroke-miterlimit="10" stroke-linecap="round"/>
<path d="M15.6055 171.146C29.1575 170.159 42.4966 166.883 54.8225 161.492" stroke="#6F8BBF" stroke-miterlimit="10" stroke-linecap="round"/>
<path d="M23.7305 189.223C36.2371 182.987 48.7436 176.744 61.2502 170.514" stroke="#6F8BBF" stroke-miterlimit="10" stroke-linecap="round"/>
<path d="M31.8633 200.231C48.1903 197.084 53.0432 193.324 71.1642 188.126" stroke="#6F8BBF" stroke-miterlimit="10" stroke-linecap="round"/>
<path d="M135.239 170.34C135.239 170.34 136.652 183.283 138.233 184.321C141.06 186.185 173.778 190.493 173.778 190.493L172.707 199C172.707 199 127.895 203.024 125.991 200.786C122.687 196.904 116.879 178.175 116.879 178.175L135.239 170.34Z" fill="#E06A58"/>
<path d="M113.633 137.017L117.253 128.331C117.253 128.331 127.075 132.942 130.315 138.636C133.78 144.724 138.02 177.092 138.02 177.092C138.02 177.092 120.68 181.084 117.492 179.388C114.304 177.692 113.633 137.017 113.633 137.017Z" fill="#F2AE30"/>
<path d="M86.0568 96.6976C83.5206 95.7689 80.8361 94.9564 78.1192 95.1627C75.4023 95.3691 72.6274 96.8072 71.7046 99.1934C71.0463 100.883 71.3496 102.876 70.3106 104.398C69.3168 105.855 67.3421 106.462 65.4964 106.584C63.6443 106.713 61.7793 106.468 59.9401 106.707C54.2612 107.461 50.2085 113.626 52.0735 118.676C52.8156 120.688 54.3386 122.61 53.9901 124.706C53.6223 126.95 51.2668 128.427 50.2988 130.51C49.0146 133.283 50.5505 136.643 53.0867 138.533C55.6228 140.416 58.9205 141.132 62.1213 141.609C66.529 142.267 71.0786 142.576 75.4346 141.648C79.7906 140.719 83.953 138.423 86.2052 134.837C87.2055 133.251 87.8121 131.458 88.9737 129.968C91.3744 126.892 95.6271 125.699 98.9764 123.519C102.635 121.127 105.32 116.47 103.165 112.827C101.087 109.325 95.6787 108.545 93.5104 105.094C92.6134 103.669 92.4005 101.973 91.8196 100.419C91.2259 98.8581 89.8062 98.0713 86.0568 96.6976Z" fill="#0A2240"/>
<path d="M100.834 139.655C101.473 140.39 102.228 141.196 103.274 141.267C104.377 141.345 105.3 140.564 106.01 139.81C109.675 135.934 112.095 131.174 113.076 126.267C112.166 125.751 111.289 125.254 110.495 124.79C109.759 124.351 109.204 123.739 108.888 123.023C108.669 122.494 108.591 121.939 108.649 121.359C109.165 116.509 109.624 113.807 111.327 108.886C103.235 107.061 95.6005 104.895 91.2123 101.231C90.6766 103.489 90.0442 107.906 88.6955 112.285C87.2564 116.922 85.0106 121.507 81.2031 123.481C88.6761 127.892 95.3424 133.374 100.834 139.655Z" fill="#F9A07B"/>
<path d="M108.649 121.365C108.591 121.946 108.668 122.507 108.888 123.029C104.099 128.833 93.3933 121.249 88.6953 112.292C90.0441 107.913 90.6765 103.495 91.2121 101.238C95.5939 104.901 103.235 107.074 111.327 108.893C109.624 113.813 109.165 116.509 108.649 121.365Z" fill="#E06A58"/>
<path d="M121.984 191.531C120.925 198.535 128.489 206.074 128.676 209.814C112.614 209.814 78.9658 210.795 61.8322 208.467C61.0513 204.146 69.5116 194.427 69.5116 184.831C69.5116 183.56 69.46 182.167 69.3568 180.671C69.0857 176.389 68.4533 171.294 67.7499 166.07C65.8397 152.056 63.2971 137.069 65.175 133.96C68.8534 127.905 77.4557 123.79 81.7214 122.023C83.1863 121.417 84.1414 121.088 84.2124 121.049C89.5622 130.168 100.449 137.946 104.56 137.598C105.702 137.507 109.09 136.327 111.329 125.061C112.201 125.557 113.072 126.015 113.936 126.46C118.189 128.672 122.177 130.497 123.326 133.341C126.359 140.829 129.334 159.705 128.676 166.419C128.011 173.19 125.288 178.362 123.378 185.16C122.932 186.752 122.526 188.442 122.197 190.261C122.113 190.667 122.048 191.093 121.984 191.531Z" fill="#FFC73C"/>
<path d="M128.676 209.814C112.614 209.814 78.9658 210.795 61.8322 208.467C61.0513 204.146 69.5116 194.427 69.5116 184.831C69.5116 183.56 69.46 182.167 69.3568 180.671C69.0857 176.389 68.4533 171.294 67.7499 166.07C70.7894 169.276 75.2229 155.733 77.1847 159.699C87.8004 181.11 96.1704 186.74 110.716 186.74C115.053 186.74 119.054 186.14 123.378 185.16C122.932 186.753 122.526 188.442 122.197 190.261C122.119 190.674 122.048 191.099 121.984 191.538C120.925 198.529 128.489 206.068 128.676 209.814Z" fill="#FFBB33"/>
<path d="M113.938 126.46C113.247 131.471 111.202 138.223 105.252 140.003C97.2107 142.409 85.5753 127.395 81.7227 122.023C83.1876 121.417 84.1427 121.088 84.2137 121.049C89.5635 130.168 100.45 137.946 104.561 137.598C105.703 137.507 109.091 136.327 111.331 125.061C112.202 125.551 113.073 126.009 113.938 126.46Z" fill="#FCE172"/>
<path d="M117.238 202.275L117.18 207.867L217.207 208.46L217.413 202.121L117.238 202.275Z" fill="#325F73"/>
<path d="M260.558 152.392L258.332 150.134L185.474 149.657L148.922 202.482L150.832 204.016L260.558 152.392Z" fill="#325F73"/>
<path d="M186.88 151.611L150.832 204.017L219.689 204.358L260.558 152.392L186.88 151.611Z" fill="#0B2D50"/>
<path d="M204.281 185.062C208.707 185.062 212.296 183.269 212.296 181.058C212.296 178.846 208.707 177.053 204.281 177.053C199.854 177.053 196.266 178.846 196.266 181.058C196.266 183.269 199.854 185.062 204.281 185.062Z" fill="#3C738C"/>
<path d="M118.717 99.8834C119.853 93.7954 124.028 89.4616 128.048 90.2162C132.069 90.9643 134.405 96.5105 133.269 102.598C132.133 108.686 127.958 113.02 123.937 112.266C119.917 111.517 117.581 105.971 118.717 99.8834Z" fill="#56C4F9"/>
<path d="M133.282 83.477C132.533 88.7781 130.165 94.621 126.712 101.076C125.499 95.7882 124.725 89.3456 123.653 82.903C122.563 76.4475 121.175 69.992 118.768 64.7166C118.226 63.5493 117.639 62.4336 117 61.4018C118.426 61.2664 119.872 61.4018 121.246 61.7823C123.395 62.3562 125.409 63.4655 127.054 64.9488C129.791 67.3801 131.623 70.6949 132.714 74.1903C133.611 77.0924 133.772 80.175 133.282 83.477Z" fill="#0B2D50"/>
<path d="M129.228 88.9587C129.19 90.0034 129.119 91.0675 129.022 92.1252C127.551 109.28 120.342 121.049 109.313 121.049C93.7415 121.049 83.6484 103.598 83.6484 86.5016C83.6484 69.4051 93.9867 57.4292 106.087 58.8415C113.063 59.6412 118.161 61.9564 121.781 65.3486C124.175 67.6058 125.905 70.3338 127.086 73.4358C128.435 76.9118 129.086 80.8457 129.222 85.0828C129.222 85.0957 129.235 85.1086 129.235 85.1215C129.287 86.3726 129.274 87.6495 129.235 88.9587H129.228Z" fill="#F9A07B"/>
<path d="M129.23 88.9586C128.766 87.3012 128.075 85.6825 127.133 84.2314C117.95 89.0295 107.005 90.8804 96.628 89.1263C94.6533 90.7708 92.7237 92.3895 90.7812 94.0082C90.82 86.2048 90.9297 80.9231 93.9757 77.1439C96.8345 73.5969 101.604 72.2619 106.121 71.6815C111.206 71.0173 116.375 71.0431 121.448 71.7783C123.39 72.0491 125.403 72.4683 127.094 73.4486C128.443 76.9246 129.095 80.8586 129.23 85.0956C129.23 85.1085 129.243 85.1214 129.243 85.1343C129.288 86.3725 129.275 87.6494 129.23 88.9586Z" fill="#E06A58"/>
<path d="M131.473 78.3951C129.337 80.2008 126.659 81.697 123.652 82.9094C115.095 86.3597 103.976 87.5011 95.3087 87.082C91.0495 96.4331 89.3264 99.7866 88.2358 107.945C84.0734 104.043 80.6854 96.8974 79.6787 91.2803C78.6848 85.6825 78.7816 79.8074 80.3433 74.3063C82.8021 65.6323 89.0037 60.989 93.3017 58.7318C94.3729 58.145 95.3409 57.7387 96.0895 57.442C101.581 55.3203 107.77 55.5137 113.404 57.2356C116.476 58.1901 119.063 59.8024 121.238 61.7887C125.633 65.7549 128.35 71.127 130.105 75.1512C130.66 76.3829 131.105 77.4986 131.473 78.3951Z" fill="#0B2D50"/>
<path d="M133.282 83.477C132.927 81.6004 132.398 79.7817 131.649 78.0276C131.23 77.0344 130.714 76.0735 130.113 75.1448C128.158 72.0751 125.312 69.547 121.872 68.4313C120.892 67.0577 119.859 65.8195 118.775 64.7231C114.871 60.7569 110.289 58.4869 105.436 57.6936C101.396 57.0423 97.1949 57.4099 93.3164 58.7255C94.3877 58.1386 95.3557 57.7323 96.1042 57.4357C101.596 55.3139 107.785 55.5074 113.419 57.2293C116.49 58.1838 119.078 59.796 121.253 61.7824C123.402 62.3563 125.415 63.4656 127.061 64.9488C129.797 67.3801 131.63 70.695 132.721 74.1904C133.611 77.0925 133.772 80.1751 133.282 83.477Z" fill="#225570"/>
<path d="M100.273 93.9955C103.152 92.351 106.14 91.6093 110.328 93.1377" stroke="#0B2D50" stroke-width="2" stroke-miterlimit="10" stroke-linecap="round"/>
<path d="M119.98 93.8792C122.446 92.0412 126.098 91.8541 128.002 93.8792" stroke="#0B2D50" stroke-width="2" stroke-miterlimit="10" stroke-linecap="round"/>
<path d="M117.007 103.256C117.259 104.559 117.123 107.442 116.504 108.738" stroke="#CC454E" stroke-width="2" stroke-miterlimit="10" stroke-linecap="round"/>
<path d="M107.281 104.134C107.937 104.134 108.469 103.296 108.469 102.263C108.469 101.23 107.937 100.393 107.281 100.393C106.625 100.393 106.094 101.23 106.094 102.263C106.094 103.296 106.625 104.134 107.281 104.134Z" fill="#262D40"/>
<path d="M122.801 103.263C123.456 103.263 123.988 102.426 123.988 101.393C123.988 100.36 123.456 99.5225 122.801 99.5225C122.145 99.5225 121.613 100.36 121.613 101.393C121.613 102.426 122.145 103.263 122.801 103.263Z" fill="#262D40"/>
<path d="M115.537 111.286C115.537 111.286 115.305 111.737 114.859 112.35C114.162 113.285 112.975 114.575 111.355 115.078C110.671 115.297 109.929 115.374 109.103 115.226C106.676 114.794 106.038 112.556 105.921 110.834C105.896 110.499 105.896 110.189 105.902 109.905C105.915 109.209 105.992 108.745 105.992 108.745C109.858 110.873 115.543 111.286 115.543 111.286H115.537Z" fill="#CC454E"/>
<path d="M115.536 111.286C115.536 111.286 115.304 111.737 114.858 112.35C112.884 112.324 108.844 111.311 105.895 109.905C105.907 109.209 105.985 108.745 105.985 108.745C109.85 110.873 115.536 111.286 115.536 111.286Z" fill="white"/>
<path d="M111.348 115.071C110.664 115.29 109.922 115.368 109.096 115.219C106.669 114.787 106.03 112.55 105.914 110.828C107.089 110.97 108.224 111.421 109.167 112.137C110.154 112.891 110.909 113.917 111.348 115.071Z" fill="#E8729B"/>
<path d="M88.2743 91.0352C88.2743 91.0352 88.1388 82.9932 91.488 75.0028C95.6892 64.9745 104.253 60.6859 112.558 60.3957C122.567 60.041 128.834 66.7544 128.834 66.7544C128.834 66.7544 125.575 61.0083 119.147 59.3574C114.927 58.2739 108.557 58.0998 103.446 60.1764C98.1802 62.311 91.6171 68.2377 89.2423 74.4998C86.8739 80.7618 85.7188 90.5128 85.7188 90.5128L88.2743 91.0352Z" fill="#3D86E0"/>
<path d="M88.1173 111.972C92.4032 111.526 95.3298 105.903 94.654 99.4134C93.9783 92.9233 89.9562 88.0234 85.6704 88.469C81.3845 88.9146 78.4579 94.5371 79.1336 101.027C79.8093 107.517 83.8315 112.417 88.1173 111.972Z" fill="#56C4F9"/>
<path d="M83.4879 92.2739C86.2564 91.8611 89.0894 95.4662 89.8251 100.329C90.5543 105.191 88.9087 109.474 86.1402 109.886C83.3717 110.299 80.5387 106.694 79.8095 101.831C79.0803 96.9688 80.7259 92.6866 83.4944 92.2739H83.4879Z" fill="#3D86E0"/>
<path d="M112.621 121.288C114.916 121.288 116.777 120.13 116.777 118.702C116.777 117.274 114.916 116.116 112.621 116.116C110.326 116.116 108.465 117.274 108.465 118.702C108.465 120.13 110.326 121.288 112.621 121.288Z" fill="#3A92C9"/>
<path d="M91.7461 110.054C91.7461 110.054 97.851 117.896 108.467 118.702" stroke="#3A92C9" stroke-width="2" stroke-miterlimit="10" stroke-linecap="round"/>
<path d="M117.181 187.346L116.781 197.658C116.781 197.658 79.4609 208.834 73.2979 205.3C70.2907 203.572 67.4835 194.066 65.3861 184.785C63.192 175.034 61.7852 165.541 61.7852 165.541L83.662 161.259C83.662 161.259 83.6749 174.59 84.417 182.296C84.6816 185.166 85.0624 187.255 85.5722 187.597C87.5017 188.868 117.181 187.346 117.181 187.346Z" fill="#F9A07B"/>
<path d="M84.417 182.283C80.4418 183.573 72.7688 185.566 65.3861 184.779C63.192 175.028 61.7852 165.535 61.7852 165.535L83.662 161.253C83.662 161.253 83.6749 174.577 84.417 182.283Z" fill="#E06A58"/>
<path d="M116.117 187.449C121.667 186.263 131.063 183.412 134.961 182.432C137.729 181.735 144.938 185.463 146.842 188.978C147.674 190.513 148.461 199.206 145.577 198.309C144.131 197.858 144.37 194.13 143.918 192.608C143.55 191.37 142.376 190.171 140.588 189.139C141.782 192.112 141.737 194.704 141.608 197.916C141.582 198.625 141.537 199.367 141.195 199.98C140.846 200.592 140.098 201.031 139.453 200.76C138.794 200.489 138.568 199.67 138.42 198.954C137.91 196.478 137.394 194.001 137.187 191.203C137.239 193.956 137.187 196.717 137.007 199.464C136.878 201.566 135.832 202.721 134.548 202.353C133.974 202.192 133.741 201.663 133.496 200.966C133.109 202.314 132.141 203.804 130.889 203.237C130.127 202.895 129.656 200.147 129.792 197.323C127.391 198.812 124.681 199.444 121.557 199.586C118.757 199.715 115.891 199.193 114.207 197.29C114.375 194.317 115.356 189.919 116.117 187.449Z" fill="#F9A07B"/>
<path d="M133.555 200.541C133.742 198.309 133.555 196.046 132.98 193.892" stroke="#CC454E" stroke-miterlimit="10" stroke-linecap="round"/>
<path d="M81.2024 139.629C79.6149 135.16 73.8004 126.015 73.8004 126.015C73.8004 126.015 64.9271 129.704 61.7778 135.966C56.4474 146.568 59.1578 177.008 59.1578 177.008C66.3404 180.013 80.7571 180.058 86.8943 179.194C86.8943 179.194 84.3839 148.561 81.2024 139.629Z" fill="#FFC73C"/>
<path d="M82.332 141.5C84.752 153.076 86.0492 163.871 86.4622 174.448" stroke="#F2AE30" stroke-miterlimit="10" stroke-linecap="round"/>
<path d="M272.255 206.622H17.8125V213H272.255V206.622Z" fill="#0B2D50"/>
</svg>
